G75*
%MOIN*%
%OFA0B0*%
%FSLAX24Y24*%
%IPPOS*%
%LPD*%
%AMOC8*
5,1,8,0,0,1.08239X$1,22.5*
%
%ADD10C,0.0000*%
%ADD11C,0.0740*%
%ADD12OC8,0.0560*%
%ADD13OC8,0.0620*%
%ADD14C,0.0620*%
%ADD15C,0.0560*%
%ADD16C,0.0560*%
%ADD17C,0.0080*%
D10*
X000522Y000180D02*
X000522Y014656D01*
X022411Y014656D01*
X022411Y000180D01*
X000522Y000180D01*
X000679Y000810D02*
X000681Y000851D01*
X000687Y000892D01*
X000697Y000932D01*
X000710Y000971D01*
X000727Y001008D01*
X000748Y001044D01*
X000772Y001078D01*
X000799Y001109D01*
X000828Y001137D01*
X000861Y001163D01*
X000895Y001185D01*
X000932Y001204D01*
X000970Y001219D01*
X001010Y001231D01*
X001050Y001239D01*
X001091Y001243D01*
X001133Y001243D01*
X001174Y001239D01*
X001214Y001231D01*
X001254Y001219D01*
X001292Y001204D01*
X001328Y001185D01*
X001363Y001163D01*
X001396Y001137D01*
X001425Y001109D01*
X001452Y001078D01*
X001476Y001044D01*
X001497Y001008D01*
X001514Y000971D01*
X001527Y000932D01*
X001537Y000892D01*
X001543Y000851D01*
X001545Y000810D01*
X001543Y000769D01*
X001537Y000728D01*
X001527Y000688D01*
X001514Y000649D01*
X001497Y000612D01*
X001476Y000576D01*
X001452Y000542D01*
X001425Y000511D01*
X001396Y000483D01*
X001363Y000457D01*
X001329Y000435D01*
X001292Y000416D01*
X001254Y000401D01*
X001214Y000389D01*
X001174Y000381D01*
X001133Y000377D01*
X001091Y000377D01*
X001050Y000381D01*
X001010Y000389D01*
X000970Y000401D01*
X000932Y000416D01*
X000896Y000435D01*
X000861Y000457D01*
X000828Y000483D01*
X000799Y000511D01*
X000772Y000542D01*
X000748Y000576D01*
X000727Y000612D01*
X000710Y000649D01*
X000697Y000688D01*
X000687Y000728D01*
X000681Y000769D01*
X000679Y000810D01*
X000679Y013999D02*
X000681Y014040D01*
X000687Y014081D01*
X000697Y014121D01*
X000710Y014160D01*
X000727Y014197D01*
X000748Y014233D01*
X000772Y014267D01*
X000799Y014298D01*
X000828Y014326D01*
X000861Y014352D01*
X000895Y014374D01*
X000932Y014393D01*
X000970Y014408D01*
X001010Y014420D01*
X001050Y014428D01*
X001091Y014432D01*
X001133Y014432D01*
X001174Y014428D01*
X001214Y014420D01*
X001254Y014408D01*
X001292Y014393D01*
X001328Y014374D01*
X001363Y014352D01*
X001396Y014326D01*
X001425Y014298D01*
X001452Y014267D01*
X001476Y014233D01*
X001497Y014197D01*
X001514Y014160D01*
X001527Y014121D01*
X001537Y014081D01*
X001543Y014040D01*
X001545Y013999D01*
X001543Y013958D01*
X001537Y013917D01*
X001527Y013877D01*
X001514Y013838D01*
X001497Y013801D01*
X001476Y013765D01*
X001452Y013731D01*
X001425Y013700D01*
X001396Y013672D01*
X001363Y013646D01*
X001329Y013624D01*
X001292Y013605D01*
X001254Y013590D01*
X001214Y013578D01*
X001174Y013570D01*
X001133Y013566D01*
X001091Y013566D01*
X001050Y013570D01*
X001010Y013578D01*
X000970Y013590D01*
X000932Y013605D01*
X000896Y013624D01*
X000861Y013646D01*
X000828Y013672D01*
X000799Y013700D01*
X000772Y013731D01*
X000748Y013765D01*
X000727Y013801D01*
X000710Y013838D01*
X000697Y013877D01*
X000687Y013917D01*
X000681Y013958D01*
X000679Y013999D01*
X021348Y013999D02*
X021350Y014040D01*
X021356Y014081D01*
X021366Y014121D01*
X021379Y014160D01*
X021396Y014197D01*
X021417Y014233D01*
X021441Y014267D01*
X021468Y014298D01*
X021497Y014326D01*
X021530Y014352D01*
X021564Y014374D01*
X021601Y014393D01*
X021639Y014408D01*
X021679Y014420D01*
X021719Y014428D01*
X021760Y014432D01*
X021802Y014432D01*
X021843Y014428D01*
X021883Y014420D01*
X021923Y014408D01*
X021961Y014393D01*
X021997Y014374D01*
X022032Y014352D01*
X022065Y014326D01*
X022094Y014298D01*
X022121Y014267D01*
X022145Y014233D01*
X022166Y014197D01*
X022183Y014160D01*
X022196Y014121D01*
X022206Y014081D01*
X022212Y014040D01*
X022214Y013999D01*
X022212Y013958D01*
X022206Y013917D01*
X022196Y013877D01*
X022183Y013838D01*
X022166Y013801D01*
X022145Y013765D01*
X022121Y013731D01*
X022094Y013700D01*
X022065Y013672D01*
X022032Y013646D01*
X021998Y013624D01*
X021961Y013605D01*
X021923Y013590D01*
X021883Y013578D01*
X021843Y013570D01*
X021802Y013566D01*
X021760Y013566D01*
X021719Y013570D01*
X021679Y013578D01*
X021639Y013590D01*
X021601Y013605D01*
X021565Y013624D01*
X021530Y013646D01*
X021497Y013672D01*
X021468Y013700D01*
X021441Y013731D01*
X021417Y013765D01*
X021396Y013801D01*
X021379Y013838D01*
X021366Y013877D01*
X021356Y013917D01*
X021350Y013958D01*
X021348Y013999D01*
X021348Y000810D02*
X021350Y000851D01*
X021356Y000892D01*
X021366Y000932D01*
X021379Y000971D01*
X021396Y001008D01*
X021417Y001044D01*
X021441Y001078D01*
X021468Y001109D01*
X021497Y001137D01*
X021530Y001163D01*
X021564Y001185D01*
X021601Y001204D01*
X021639Y001219D01*
X021679Y001231D01*
X021719Y001239D01*
X021760Y001243D01*
X021802Y001243D01*
X021843Y001239D01*
X021883Y001231D01*
X021923Y001219D01*
X021961Y001204D01*
X021997Y001185D01*
X022032Y001163D01*
X022065Y001137D01*
X022094Y001109D01*
X022121Y001078D01*
X022145Y001044D01*
X022166Y001008D01*
X022183Y000971D01*
X022196Y000932D01*
X022206Y000892D01*
X022212Y000851D01*
X022214Y000810D01*
X022212Y000769D01*
X022206Y000728D01*
X022196Y000688D01*
X022183Y000649D01*
X022166Y000612D01*
X022145Y000576D01*
X022121Y000542D01*
X022094Y000511D01*
X022065Y000483D01*
X022032Y000457D01*
X021998Y000435D01*
X021961Y000416D01*
X021923Y000401D01*
X021883Y000389D01*
X021843Y000381D01*
X021802Y000377D01*
X021760Y000377D01*
X021719Y000381D01*
X021679Y000389D01*
X021639Y000401D01*
X021601Y000416D01*
X021565Y000435D01*
X021530Y000457D01*
X021497Y000483D01*
X021468Y000511D01*
X021441Y000542D01*
X021417Y000576D01*
X021396Y000612D01*
X021379Y000649D01*
X021366Y000688D01*
X021356Y000728D01*
X021350Y000769D01*
X021348Y000810D01*
D11*
X019868Y013574D03*
X018868Y013574D03*
X017868Y013574D03*
X016368Y013574D03*
X015368Y013574D03*
X014368Y013574D03*
X012868Y013574D03*
X011868Y013574D03*
X010868Y013574D03*
X009289Y013574D03*
X008289Y013574D03*
X007289Y013574D03*
X001545Y012574D03*
X001545Y011574D03*
X001545Y010574D03*
X001585Y009054D03*
X001585Y008054D03*
X001585Y006574D03*
X001585Y005574D03*
X001585Y004093D03*
X001585Y003093D03*
D12*
X002588Y002145D03*
X004022Y001971D03*
X004022Y002971D03*
X005088Y003404D03*
X006088Y003404D03*
X007325Y003204D03*
X008360Y002377D03*
X009683Y002845D03*
X010659Y002377D03*
X010659Y001377D03*
X012281Y002086D03*
X012281Y003086D03*
X013632Y002377D03*
X014872Y002086D03*
X016014Y002086D03*
X016014Y003086D03*
X014872Y003086D03*
X014817Y004495D03*
X015817Y004495D03*
X017707Y005711D03*
X017707Y006711D03*
X019214Y006711D03*
X019214Y005711D03*
X021380Y003263D03*
X021380Y002263D03*
X013632Y001377D03*
X009683Y003845D03*
X009179Y004975D03*
X008179Y004975D03*
X007325Y004204D03*
X006313Y004904D03*
X005313Y004904D03*
X007191Y005751D03*
X005911Y006562D03*
X004911Y006562D03*
X005403Y008137D03*
X005403Y009137D03*
X005116Y010050D03*
X006116Y010050D03*
X007250Y010589D03*
X007250Y011589D03*
X008667Y011601D03*
X008667Y010601D03*
X009140Y009168D03*
X009140Y008168D03*
X007191Y006751D03*
X008553Y006641D03*
X009553Y006641D03*
X012234Y006900D03*
X013266Y007747D03*
X012234Y007900D03*
X013707Y009101D03*
X014707Y009101D03*
X016045Y009708D03*
X017478Y009357D03*
X018864Y009074D03*
X018864Y010074D03*
X017478Y010357D03*
X016045Y010708D03*
X017258Y011574D03*
X016403Y011861D03*
X015403Y011861D03*
X018258Y011574D03*
X019455Y011574D03*
X020455Y011574D03*
X020309Y010074D03*
X020309Y009074D03*
X014266Y007747D03*
X012258Y009676D03*
X012258Y010676D03*
X006443Y001735D03*
X005443Y001735D03*
X002588Y001145D03*
X008360Y001377D03*
D13*
X012864Y005046D03*
X021018Y005952D03*
X014313Y011574D03*
X010868Y010912D03*
X004565Y012440D03*
X004120Y010491D03*
D14*
X003120Y010491D03*
X005565Y012440D03*
X010868Y011912D03*
X013313Y011574D03*
X021018Y006952D03*
X013864Y005046D03*
D15*
X017183Y004267D03*
X017183Y003267D03*
X017183Y002267D03*
X017183Y001267D03*
X020183Y001267D03*
X020183Y002267D03*
X020183Y003267D03*
X020183Y004267D03*
D16*
X015935Y006180D02*
X015375Y006180D01*
X015375Y007180D02*
X015935Y007180D01*
X015935Y008180D02*
X015375Y008180D01*
X011018Y006196D02*
X010458Y006196D01*
X010458Y005196D02*
X011018Y005196D01*
X011018Y004196D02*
X010458Y004196D01*
X007959Y007680D02*
X007399Y007680D01*
X007399Y008680D02*
X007959Y008680D01*
X007959Y009680D02*
X007399Y009680D01*
X010281Y009869D02*
X010841Y009869D01*
X010841Y008869D02*
X010281Y008869D01*
X010281Y007869D02*
X010841Y007869D01*
X003798Y007979D02*
X003238Y007979D01*
X003238Y006979D02*
X003798Y006979D01*
X003790Y005971D02*
X003230Y005971D01*
X003230Y004971D02*
X003790Y004971D01*
X003790Y003971D02*
X003230Y003971D01*
X003238Y008979D02*
X003798Y008979D01*
D17*
X004662Y008100D02*
X003582Y007020D01*
X003518Y006979D01*
X003132Y006480D02*
X001602Y008010D01*
X001585Y008054D01*
X003518Y007979D02*
X003582Y008010D01*
X004302Y008010D01*
X005382Y009090D01*
X005403Y009137D01*
X005472Y009090D01*
X005832Y008730D01*
X005832Y007470D01*
X007002Y006300D01*
X007272Y006300D01*
X008172Y005400D01*
X008172Y005040D01*
X008179Y004975D01*
X007632Y004860D02*
X008352Y004140D01*
X009702Y004140D01*
X010692Y005130D01*
X010738Y005196D01*
X010692Y006120D02*
X009612Y005040D01*
X009252Y005040D01*
X009179Y004975D01*
X009702Y004140D02*
X009702Y003870D01*
X009683Y003845D01*
X009702Y003150D02*
X009072Y003150D01*
X007542Y004680D01*
X007182Y004680D01*
X006912Y004410D01*
X006192Y004410D01*
X005832Y004770D01*
X005832Y005040D01*
X005382Y005490D01*
X001602Y005490D01*
X001585Y005574D01*
X003132Y006480D02*
X004842Y006480D01*
X004911Y006562D01*
X004662Y008100D02*
X005382Y008100D01*
X005403Y008137D01*
X006732Y008640D02*
X006732Y010080D01*
X007182Y010530D01*
X007250Y010589D01*
X007452Y011070D02*
X009072Y009450D01*
X009072Y009180D01*
X009140Y009168D01*
X009162Y009180D01*
X009882Y009180D01*
X010512Y009810D01*
X010561Y009869D01*
X011322Y009450D02*
X011322Y010440D01*
X010872Y010890D01*
X010868Y010912D01*
X011322Y010980D02*
X011322Y011160D01*
X011052Y011430D01*
X008802Y011430D01*
X008712Y011520D01*
X008667Y011601D01*
X008622Y011610D01*
X007362Y012870D01*
X007362Y012960D01*
X005022Y012960D01*
X004572Y012510D01*
X004565Y012440D01*
X004392Y011970D02*
X005202Y011970D01*
X005202Y011070D01*
X007452Y011070D01*
X006732Y010080D02*
X006192Y010080D01*
X006116Y010050D01*
X005202Y010080D02*
X005116Y010050D01*
X005202Y010080D02*
X005202Y011070D01*
X004120Y010491D02*
X004032Y010440D01*
X003762Y010440D01*
X003312Y009990D01*
X002142Y009990D01*
X001602Y010530D01*
X001545Y010574D01*
X001602Y011520D02*
X002592Y010530D01*
X003042Y010530D01*
X003120Y010491D01*
X001602Y011520D02*
X001545Y011574D01*
X001602Y012510D02*
X001545Y012574D01*
X001602Y012510D02*
X003852Y012510D01*
X004392Y011970D01*
X005202Y011970D02*
X005202Y012060D01*
X005562Y012420D01*
X005565Y012440D01*
X007362Y012960D02*
X007362Y013500D01*
X007289Y013574D01*
X008289Y013574D02*
X008352Y013500D01*
X009882Y011970D01*
X010782Y011970D01*
X010868Y011912D01*
X011862Y011610D02*
X009972Y013500D01*
X009342Y013500D01*
X009289Y013574D01*
X010868Y013574D02*
X010872Y013590D01*
X011862Y013590D01*
X011868Y013574D01*
X011952Y013500D01*
X012132Y013500D01*
X014022Y011610D01*
X014292Y011610D01*
X014313Y011574D01*
X014382Y011520D01*
X014382Y009450D01*
X014652Y009180D01*
X014707Y009101D01*
X014742Y009180D01*
X015552Y009180D01*
X016002Y009630D01*
X016045Y009708D01*
X016002Y010620D02*
X016045Y010708D01*
X016092Y010710D01*
X017442Y009360D01*
X017478Y009357D01*
X018432Y009450D02*
X018792Y009090D01*
X018864Y009074D01*
X018792Y009000D01*
X018792Y005220D01*
X017262Y003690D01*
X017262Y003330D01*
X017183Y003267D01*
X016362Y002340D02*
X016182Y002520D01*
X015282Y002520D01*
X014922Y002160D01*
X014872Y002086D01*
X014832Y002070D01*
X014202Y001440D01*
X013662Y001440D01*
X013632Y001377D01*
X013572Y001440D01*
X012942Y002070D01*
X012312Y002070D01*
X012281Y002086D01*
X012222Y002070D01*
X011592Y001440D01*
X010692Y001440D01*
X010659Y001377D01*
X010659Y002377D02*
X010692Y002430D01*
X011592Y002430D01*
X012222Y003060D01*
X012281Y003086D01*
X013632Y002377D02*
X013662Y002430D01*
X014202Y002430D01*
X014832Y003060D01*
X014872Y003086D01*
X014922Y003060D01*
X015372Y003060D01*
X015372Y004680D01*
X015642Y004950D01*
X015642Y006120D01*
X015655Y006180D01*
X015642Y006210D01*
X014922Y006930D01*
X014922Y007740D01*
X014472Y008190D01*
X014112Y008190D01*
X013752Y007830D01*
X013302Y007830D01*
X013266Y007747D01*
X013212Y007830D01*
X011772Y009270D01*
X011772Y009810D01*
X012132Y010170D01*
X011322Y010980D01*
X011862Y011610D02*
X013302Y011610D01*
X013313Y011574D01*
X012402Y010170D02*
X012132Y010170D01*
X012402Y010170D02*
X013392Y009180D01*
X013662Y009180D01*
X013707Y009101D01*
X013572Y008640D02*
X016092Y008640D01*
X017622Y007110D01*
X017622Y006750D01*
X017707Y006711D01*
X017262Y006570D02*
X017262Y006120D01*
X017622Y005760D01*
X017707Y005711D01*
X017262Y006570D02*
X015732Y008100D01*
X015655Y008180D01*
X014742Y009090D02*
X014707Y009101D01*
X013572Y008640D02*
X012582Y009630D01*
X012312Y009630D01*
X012258Y009676D01*
X011322Y009450D02*
X012222Y008550D01*
X012222Y007920D01*
X012234Y007900D01*
X012222Y007200D02*
X010602Y008820D01*
X010561Y008869D01*
X010512Y008820D01*
X008622Y006930D01*
X008622Y006660D01*
X008553Y006641D01*
X007272Y006840D02*
X007272Y007290D01*
X007632Y007650D01*
X007679Y007680D01*
X007632Y007740D01*
X006732Y008640D01*
X007679Y008680D02*
X007722Y008640D01*
X008622Y008640D01*
X009072Y008190D01*
X009140Y008168D01*
X007272Y006840D02*
X007191Y006751D01*
X007632Y004860D02*
X006372Y004860D01*
X006313Y004904D01*
X005313Y004904D02*
X005292Y004860D01*
X004482Y004050D01*
X003582Y004050D01*
X003510Y003971D01*
X004022Y002971D02*
X004032Y002970D01*
X005652Y002970D01*
X006012Y003330D01*
X006088Y003404D01*
X005832Y004140D02*
X005112Y003420D01*
X005088Y003404D01*
X005832Y004140D02*
X007272Y004140D01*
X007325Y004204D01*
X007325Y003204D02*
X007272Y003150D01*
X006462Y002340D01*
X006462Y001800D01*
X006443Y001735D01*
X005443Y001735D02*
X005382Y001800D01*
X004122Y001800D01*
X004032Y001890D01*
X004022Y001971D01*
X003942Y001980D01*
X002682Y001980D01*
X002592Y002070D01*
X002588Y002145D01*
X002502Y001620D02*
X001602Y002520D01*
X001602Y003060D01*
X001585Y003093D01*
X002502Y001620D02*
X002502Y001170D01*
X002588Y001145D01*
X008360Y001377D02*
X008442Y001440D01*
X008892Y001440D01*
X012492Y005040D01*
X012852Y005040D01*
X012864Y005046D01*
X013864Y005046D02*
X013932Y005130D01*
X013932Y007470D01*
X014202Y007740D01*
X014266Y007747D01*
X012222Y007200D02*
X012222Y006930D01*
X012234Y006900D01*
X010738Y006196D02*
X010692Y006120D01*
X010738Y004196D02*
X010692Y004140D01*
X009702Y003150D01*
X009702Y002880D01*
X009683Y002845D01*
X013864Y005046D02*
X013932Y005040D01*
X014472Y004500D01*
X014742Y004500D01*
X014817Y004495D01*
X015372Y003060D02*
X016002Y003060D01*
X016014Y003086D01*
X016362Y002340D02*
X017172Y002340D01*
X017183Y002267D01*
X017262Y001800D02*
X016362Y001800D01*
X016092Y002070D01*
X016014Y002086D01*
X017262Y001800D02*
X017712Y001350D01*
X020142Y001350D01*
X020183Y001267D01*
X020232Y002250D02*
X020183Y002267D01*
X020232Y002250D02*
X021312Y002250D01*
X021380Y002263D01*
X021312Y003240D02*
X020772Y003240D01*
X020772Y005760D01*
X021018Y005952D01*
X020952Y005940D01*
X020772Y005760D01*
X019242Y005760D01*
X019214Y005711D01*
X019214Y006711D02*
X019242Y006750D01*
X019422Y006930D01*
X019422Y011520D01*
X019455Y011574D01*
X019512Y011610D01*
X019455Y011574D02*
X019422Y011610D01*
X018342Y011610D01*
X018258Y011574D01*
X017262Y011520D02*
X017262Y011250D01*
X018432Y010080D01*
X018432Y009450D01*
X020232Y010080D02*
X020309Y010074D01*
X020232Y010080D02*
X020232Y011160D01*
X019962Y011430D01*
X019962Y012420D01*
X018882Y013500D01*
X018868Y013574D01*
X018792Y013590D01*
X017892Y013590D01*
X017868Y013574D01*
X019868Y013574D02*
X019872Y013500D01*
X020952Y012420D01*
X020952Y007020D01*
X021018Y006952D01*
X021380Y003263D02*
X021312Y003240D01*
X020772Y003240D02*
X020232Y003240D01*
X020183Y003267D01*
X016002Y010620D02*
X013122Y013500D01*
X012942Y013500D01*
X012868Y013574D01*
X014368Y013574D02*
X014382Y013590D01*
X015282Y013590D01*
X015368Y013574D01*
X015372Y013500D01*
X015372Y012870D01*
X016362Y011880D01*
X016403Y011861D01*
X017258Y011574D02*
X017262Y011520D01*
M02*
