%
M48
M72
T01C0.0320
T02C0.0400
T03C0.0866
%
T01
X2588Y1145
X4022Y1971
X4022Y2971
X5088Y3404
X6088Y3404
X7325Y3204
X8360Y2377
X9683Y2845
X10659Y2377
X10659Y1377
X12281Y2086
X12281Y3086
X13632Y2377
X14872Y2086
X16014Y2086
X16014Y3086
X14872Y3086
X14817Y4495
X13864Y5046
X12864Y5046
X10738Y5196
X10738Y4196
X9683Y3845
X9179Y4975
X8179Y4975
X7325Y4204
X6313Y4904
X5313Y4904
X3510Y4971
X3510Y3971
X2588Y2145
X5443Y1735
X6443Y1735
X8360Y1377
X13632Y1377
X17183Y1267
X17183Y2267
X17183Y3267
X17183Y4267
X15817Y4495
X17707Y5711
X17707Y6711
X19214Y6711
X19214Y5711
X21018Y5952
X21018Y6952
X20309Y9074
X20309Y10074
X18864Y10074
X18864Y9074
X17478Y9357
X16045Y9708
X14707Y9101
X13707Y9101
X12258Y9676
X12258Y10676
X13313Y11574
X14313Y11574
X15403Y11861
X16403Y11861
X17258Y11574
X18258Y11574
X19455Y11574
X20455Y11574
X17478Y10357
X16045Y10708
X15655Y8180
X14266Y7747
X13266Y7747
X12234Y7900
X12234Y6900
X10738Y6196
X9553Y6641
X8553Y6641
X7191Y6751
X5911Y6562
X4911Y6562
X3518Y6979
X3510Y5971
X3518Y7979
X3518Y8979
X5116Y10050
X4120Y10491
X3120Y10491
X5403Y9137
X6116Y10050
X7250Y10589
X7250Y11589
X8667Y11601
X8667Y10601
X7679Y9680
X7679Y8680
X7679Y7680
X9140Y8168
X10561Y7869
X10561Y8869
X9140Y9168
X10561Y9869
X10868Y10912
X10868Y11912
X5565Y12440
X4565Y12440
X5403Y8137
X7191Y5751
X15655Y6180
X15655Y7180
X20183Y4267
X20183Y3267
X21380Y3263
X21380Y2263
X20183Y2267
X20183Y1267
T02
X1585Y3093
X1585Y4093
X1585Y5574
X1585Y6574
X1585Y8054
X1585Y9054
X1545Y10574
X1545Y11574
X1545Y12574
X7289Y13574
X8289Y13574
X9289Y13574
X10868Y13574
X11868Y13574
X12868Y13574
X14368Y13574
X15368Y13574
X16368Y13574
X17868Y13574
X18868Y13574
X19868Y13574
T03
X1112Y810
X1112Y13999
X21781Y13999
X21781Y810
M30
