G75*
%MOIN*%
%OFA0B0*%
%FSLAX24Y24*%
%IPPOS*%
%LPD*%
%AMOC8*
5,1,8,0,0,1.08239X$1,22.5*
%
%ADD10C,0.0740*%
%ADD11OC8,0.0560*%
%ADD12OC8,0.0620*%
%ADD13C,0.0620*%
%ADD14C,0.0560*%
%ADD15C,0.0560*%
%ADD16C,0.0080*%
%ADD17C,0.0160*%
D10*
X001585Y003093D03*
X001585Y004093D03*
X001585Y005574D03*
X001585Y006574D03*
X001585Y008054D03*
X001585Y009054D03*
X001545Y010574D03*
X001545Y011574D03*
X001545Y012574D03*
X007289Y013574D03*
X008289Y013574D03*
X009289Y013574D03*
X010868Y013574D03*
X011868Y013574D03*
X012868Y013574D03*
X014368Y013574D03*
X015368Y013574D03*
X016368Y013574D03*
X017868Y013574D03*
X018868Y013574D03*
X019868Y013574D03*
D11*
X019455Y011574D03*
X020455Y011574D03*
X020309Y010074D03*
X020309Y009074D03*
X018864Y009074D03*
X018864Y010074D03*
X017478Y010357D03*
X016045Y010708D03*
X017258Y011574D03*
X016403Y011861D03*
X015403Y011861D03*
X018258Y011574D03*
X016045Y009708D03*
X014707Y009101D03*
X013707Y009101D03*
X012258Y009676D03*
X012258Y010676D03*
X009140Y009168D03*
X009140Y008168D03*
X007191Y006751D03*
X005911Y006562D03*
X004911Y006562D03*
X005403Y008137D03*
X005403Y009137D03*
X005116Y010050D03*
X006116Y010050D03*
X007250Y010589D03*
X007250Y011589D03*
X008667Y011601D03*
X008667Y010601D03*
X012234Y007900D03*
X013266Y007747D03*
X014266Y007747D03*
X012234Y006900D03*
X009553Y006641D03*
X008553Y006641D03*
X007191Y005751D03*
X008179Y004975D03*
X009179Y004975D03*
X009683Y003845D03*
X009683Y002845D03*
X010659Y002377D03*
X010659Y001377D03*
X012281Y002086D03*
X012281Y003086D03*
X013632Y002377D03*
X014872Y002086D03*
X016014Y002086D03*
X016014Y003086D03*
X014872Y003086D03*
X014817Y004495D03*
X015817Y004495D03*
X017707Y005711D03*
X017707Y006711D03*
X019214Y006711D03*
X019214Y005711D03*
X021380Y003263D03*
X021380Y002263D03*
X013632Y001377D03*
X008360Y001377D03*
X008360Y002377D03*
X007325Y003204D03*
X006088Y003404D03*
X005088Y003404D03*
X004022Y002971D03*
X004022Y001971D03*
X002588Y002145D03*
X002588Y001145D03*
X005443Y001735D03*
X006443Y001735D03*
X007325Y004204D03*
X006313Y004904D03*
X005313Y004904D03*
X017478Y009357D03*
D12*
X014313Y011574D03*
X010868Y010912D03*
X004565Y012440D03*
X004120Y010491D03*
X012864Y005046D03*
X021018Y005952D03*
D13*
X021018Y006952D03*
X013864Y005046D03*
X013313Y011574D03*
X010868Y011912D03*
X005565Y012440D03*
X003120Y010491D03*
D14*
X017183Y004267D03*
X017183Y003267D03*
X017183Y002267D03*
X017183Y001267D03*
X020183Y001267D03*
X020183Y002267D03*
X020183Y003267D03*
X020183Y004267D03*
D15*
X015935Y006180D02*
X015375Y006180D01*
X015375Y007180D02*
X015935Y007180D01*
X015935Y008180D02*
X015375Y008180D01*
X011018Y006196D02*
X010458Y006196D01*
X010458Y005196D02*
X011018Y005196D01*
X011018Y004196D02*
X010458Y004196D01*
X007959Y007680D02*
X007399Y007680D01*
X007399Y008680D02*
X007959Y008680D01*
X007959Y009680D02*
X007399Y009680D01*
X010281Y009869D02*
X010841Y009869D01*
X010841Y008869D02*
X010281Y008869D01*
X010281Y007869D02*
X010841Y007869D01*
X003798Y007979D02*
X003238Y007979D01*
X003238Y006979D02*
X003798Y006979D01*
X003790Y005971D02*
X003230Y005971D01*
X003230Y004971D02*
X003790Y004971D01*
X003790Y003971D02*
X003230Y003971D01*
X003238Y008979D02*
X003798Y008979D01*
D16*
X003582Y008910D02*
X003518Y008979D01*
X003582Y008910D02*
X005022Y008910D01*
X005292Y008640D01*
X007632Y008640D01*
X007679Y008680D01*
X007722Y008730D01*
X008622Y009630D01*
X008622Y010530D01*
X008667Y010601D01*
X008622Y011520D02*
X007722Y010620D01*
X007722Y009720D01*
X007679Y009680D01*
X007250Y011589D02*
X007272Y011610D01*
X008082Y011610D01*
X008532Y012060D01*
X010062Y012060D01*
X010692Y011430D01*
X011502Y011430D01*
X012222Y010710D01*
X012258Y010676D01*
X012312Y010710D01*
X014292Y010710D01*
X015372Y011790D01*
X015403Y011861D01*
X016362Y011790D02*
X016403Y011861D01*
X016362Y011790D02*
X013752Y009180D01*
X013707Y009101D01*
X014022Y008640D02*
X011772Y008640D01*
X010602Y009810D01*
X010561Y009869D01*
X012042Y008370D02*
X013662Y008370D01*
X014202Y007830D01*
X014266Y007747D01*
X014922Y007740D02*
X014022Y008640D01*
X013266Y007747D02*
X013212Y007740D01*
X012942Y007470D01*
X012132Y007470D01*
X011322Y006660D01*
X009612Y006660D01*
X009553Y006641D01*
X010561Y007869D02*
X010602Y007920D01*
X011592Y007920D01*
X012042Y008370D01*
X014922Y007740D02*
X016002Y007740D01*
X016362Y007380D01*
X016362Y004410D01*
X016992Y003780D01*
X017352Y003780D01*
X017802Y004230D01*
X020142Y004230D01*
X020183Y004267D01*
X020682Y003150D02*
X020682Y005580D01*
X020502Y005760D01*
X020502Y008640D01*
X020772Y008910D01*
X020772Y009540D01*
X020322Y009990D01*
X020309Y010074D01*
X020232Y009090D02*
X019782Y009090D01*
X018882Y009990D01*
X018864Y010074D01*
X018792Y009990D01*
X018342Y009540D01*
X017532Y010350D01*
X017478Y010357D01*
X017712Y011250D02*
X016542Y010080D01*
X016542Y009000D01*
X015732Y008190D01*
X015655Y008180D01*
X015655Y007180D02*
X015642Y007110D01*
X014292Y005760D01*
X007272Y005760D01*
X007191Y005751D01*
X005922Y006210D02*
X005922Y006480D01*
X005911Y006562D01*
X005922Y006210D02*
X008802Y003330D01*
X008802Y001800D01*
X008442Y001440D01*
X008360Y001377D01*
X007992Y000900D02*
X015552Y000900D01*
X016722Y002070D01*
X017172Y001620D01*
X017172Y001350D01*
X017183Y001267D01*
X016722Y002070D02*
X016452Y002340D01*
X016452Y003780D01*
X015822Y004410D01*
X015817Y004495D01*
X017183Y004267D02*
X017262Y004320D01*
X017262Y008460D01*
X018342Y009540D01*
X018882Y009990D02*
X020412Y011520D01*
X020455Y011574D01*
X017712Y011790D02*
X017712Y011250D01*
X017712Y011790D02*
X016452Y013050D01*
X016452Y013500D01*
X016368Y013574D01*
X020232Y009090D02*
X020309Y009074D01*
X019152Y006750D02*
X017712Y006750D01*
X017707Y006711D01*
X019152Y006750D02*
X019214Y006711D01*
X020682Y003150D02*
X020232Y002700D01*
X020232Y002340D01*
X020183Y002267D01*
X010659Y002377D02*
X010602Y002430D01*
X010602Y002610D01*
X009792Y003420D01*
X009432Y003420D01*
X009252Y003600D01*
X009252Y004950D01*
X009179Y004975D01*
X007002Y002430D02*
X006102Y003330D01*
X006088Y003404D01*
X005652Y003510D02*
X005652Y003240D01*
X007992Y000900D01*
X008360Y002377D02*
X008352Y002430D01*
X007002Y002430D01*
X005652Y003510D02*
X004482Y004680D01*
X004482Y006930D01*
X003942Y007470D01*
X003132Y007470D01*
X002772Y007830D01*
X002772Y009180D01*
X004032Y010440D01*
X004120Y010491D01*
X003132Y010530D02*
X003120Y010491D01*
X003042Y010530D01*
X001602Y009090D01*
X001585Y009054D01*
X001602Y009000D01*
X001602Y008820D01*
X002142Y008280D01*
X002142Y006570D01*
X001602Y006570D01*
X001585Y006574D01*
X002142Y006570D02*
X003492Y006570D01*
X003492Y006030D01*
X003510Y005971D01*
X003492Y006030D02*
X001962Y004500D01*
X003402Y003060D01*
X003942Y003060D01*
X004022Y002971D01*
X005022Y003420D02*
X005088Y003404D01*
X005022Y003420D02*
X003492Y004950D01*
X003510Y004971D01*
X001962Y004500D02*
X001602Y004140D01*
X001585Y004093D01*
X003492Y006570D02*
X003492Y006930D01*
X003518Y006979D01*
X003132Y010530D02*
X004482Y011880D01*
X004482Y012420D01*
X004565Y012440D01*
X008622Y011520D02*
X008667Y011601D01*
D17*
X000743Y000340D02*
X000682Y000340D01*
X000682Y000402D01*
X000743Y000340D01*
X001481Y000340D02*
X021413Y000340D01*
X021279Y000474D01*
X021188Y000692D01*
X021188Y000928D01*
X021279Y001146D01*
X021445Y001313D01*
X021663Y001403D01*
X021899Y001403D01*
X022117Y001313D01*
X022251Y001179D01*
X022251Y013630D01*
X022117Y013496D01*
X021899Y013406D01*
X021663Y013406D01*
X021445Y013496D01*
X021279Y013663D01*
X021188Y013881D01*
X021188Y014117D01*
X021279Y014335D01*
X021440Y014496D01*
X001453Y014496D01*
X001615Y014335D01*
X001705Y014117D01*
X001705Y013881D01*
X001615Y013663D01*
X001448Y013496D01*
X001230Y013406D01*
X000994Y013406D01*
X000776Y013496D01*
X000682Y013591D01*
X000682Y001218D01*
X000776Y001313D01*
X000994Y001403D01*
X001230Y001403D01*
X001448Y001313D01*
X001615Y001146D01*
X001705Y000928D01*
X001705Y000692D01*
X001615Y000474D01*
X001481Y000340D01*
X001624Y000497D02*
X021269Y000497D01*
X021203Y000656D02*
X001690Y000656D01*
X001705Y000814D02*
X002268Y000814D01*
X002398Y000685D02*
X002128Y000954D01*
X002128Y001335D01*
X002398Y001605D01*
X002779Y001605D01*
X003048Y001335D01*
X003048Y000954D01*
X002779Y000685D01*
X002398Y000685D01*
X002128Y000973D02*
X001687Y000973D01*
X001621Y001131D02*
X002128Y001131D01*
X002128Y001290D02*
X001471Y001290D01*
X000753Y001290D02*
X000682Y001290D01*
X000682Y001448D02*
X002241Y001448D01*
X002398Y001685D02*
X002779Y001685D01*
X003048Y001954D01*
X003048Y002335D01*
X002779Y002605D01*
X002398Y002605D01*
X002128Y002335D01*
X002128Y001954D01*
X002398Y001685D01*
X002317Y001765D02*
X000682Y001765D01*
X000682Y001607D02*
X003736Y001607D01*
X003831Y001511D02*
X004212Y001511D01*
X004482Y001781D01*
X004482Y002162D01*
X004212Y002431D01*
X003831Y002431D01*
X003562Y002162D01*
X003562Y001781D01*
X003831Y001511D01*
X003577Y001765D02*
X002859Y001765D01*
X003018Y001924D02*
X003562Y001924D01*
X003562Y002082D02*
X003048Y002082D01*
X003048Y002241D02*
X003640Y002241D01*
X003799Y002399D02*
X002985Y002399D01*
X002826Y002558D02*
X003785Y002558D01*
X003831Y002511D02*
X003562Y002781D01*
X003562Y002840D01*
X003310Y002840D01*
X002135Y004016D01*
X002135Y003984D01*
X002166Y003984D01*
X002135Y003984D02*
X002051Y003782D01*
X001896Y003627D01*
X001815Y003593D01*
X001896Y003560D01*
X002051Y003405D01*
X002135Y003203D01*
X002135Y002984D01*
X002051Y002782D01*
X001896Y002627D01*
X001694Y002543D01*
X001475Y002543D01*
X001273Y002627D01*
X001118Y002782D01*
X001035Y002984D01*
X001035Y003203D01*
X001118Y003405D01*
X001273Y003560D01*
X001354Y003593D01*
X001273Y003627D01*
X001118Y003782D01*
X001035Y003984D01*
X000682Y003984D01*
X000682Y003826D02*
X001100Y003826D01*
X001035Y003984D02*
X001035Y004203D01*
X001118Y004405D01*
X001273Y004560D01*
X001475Y004643D01*
X001694Y004643D01*
X001765Y004614D01*
X001870Y004720D01*
X002850Y005700D01*
X002840Y005711D01*
X002770Y005880D01*
X002770Y006063D01*
X002840Y006232D01*
X002958Y006350D01*
X002087Y006350D01*
X002051Y006262D01*
X001896Y006107D01*
X001815Y006074D01*
X001896Y006040D01*
X002051Y005885D01*
X002135Y005683D01*
X002135Y005464D01*
X002051Y005262D01*
X001896Y005107D01*
X001694Y005024D01*
X001475Y005024D01*
X001273Y005107D01*
X001118Y005262D01*
X001035Y005464D01*
X001035Y005683D01*
X001118Y005885D01*
X001273Y006040D01*
X001354Y006074D01*
X001273Y006107D01*
X001118Y006262D01*
X001035Y006464D01*
X001035Y006683D01*
X001118Y006885D01*
X001273Y007040D01*
X001475Y007124D01*
X001694Y007124D01*
X001896Y007040D01*
X001922Y007015D01*
X001922Y007613D01*
X001896Y007588D01*
X001694Y007504D01*
X001475Y007504D01*
X001273Y007588D01*
X001118Y007742D01*
X001035Y007945D01*
X001035Y008163D01*
X001118Y008366D01*
X001273Y008520D01*
X001354Y008554D01*
X001273Y008588D01*
X001118Y008742D01*
X001035Y008945D01*
X001035Y009163D01*
X001118Y009366D01*
X001273Y009520D01*
X001475Y009604D01*
X001694Y009604D01*
X001772Y009572D01*
X002630Y010430D01*
X002630Y010588D01*
X002705Y010769D01*
X002842Y010906D01*
X003022Y010981D01*
X003217Y010981D01*
X003256Y010965D01*
X004262Y011971D01*
X004262Y012050D01*
X004075Y012237D01*
X004075Y012643D01*
X004362Y012930D01*
X004768Y012930D01*
X005055Y012643D01*
X005055Y012237D01*
X004768Y011950D01*
X004702Y011950D01*
X004702Y011789D01*
X003578Y010665D01*
X003610Y010588D01*
X003610Y010394D01*
X003565Y010284D01*
X003630Y010350D01*
X003630Y010694D01*
X003917Y010981D01*
X004323Y010981D01*
X004610Y010694D01*
X004610Y010288D01*
X004323Y010001D01*
X003917Y010001D01*
X003910Y010008D01*
X003342Y009439D01*
X003889Y009439D01*
X004058Y009369D01*
X004188Y009240D01*
X004233Y009130D01*
X004943Y009130D01*
X004943Y009327D01*
X005206Y009590D01*
X004925Y009590D01*
X004656Y009860D01*
X004656Y010241D01*
X004925Y010510D01*
X005307Y010510D01*
X005576Y010241D01*
X005576Y009860D01*
X005313Y009597D01*
X005594Y009597D01*
X005863Y009327D01*
X005863Y008946D01*
X005777Y008860D01*
X006976Y008860D01*
X007009Y008941D01*
X007138Y009070D01*
X007308Y009140D01*
X007820Y009140D01*
X007900Y009220D01*
X007308Y009220D01*
X007138Y009290D01*
X007009Y009419D01*
X006939Y009588D01*
X006939Y009771D01*
X007009Y009941D01*
X007138Y010070D01*
X007282Y010129D01*
X007059Y010129D01*
X006790Y010399D01*
X006790Y010780D01*
X007059Y011049D01*
X007440Y011049D01*
X007640Y010850D01*
X008207Y011417D01*
X008207Y011425D01*
X008173Y011390D01*
X007701Y011390D01*
X007440Y011129D01*
X007059Y011129D01*
X006790Y011399D01*
X006790Y011780D01*
X007059Y012049D01*
X007440Y012049D01*
X007660Y011830D01*
X007990Y011830D01*
X008312Y012151D01*
X008440Y012280D01*
X010153Y012280D01*
X010282Y012151D01*
X010282Y012151D01*
X010391Y012042D01*
X010453Y012190D01*
X010590Y012328D01*
X010771Y012402D01*
X010965Y012402D01*
X011146Y012328D01*
X011283Y012190D01*
X011358Y012010D01*
X011358Y011815D01*
X011290Y011650D01*
X011593Y011650D01*
X012107Y011136D01*
X012448Y011136D01*
X012654Y010930D01*
X014200Y010930D01*
X014354Y011084D01*
X014110Y011084D01*
X013823Y011371D01*
X013823Y011777D01*
X014110Y012064D01*
X014516Y012064D01*
X014803Y011777D01*
X014803Y011532D01*
X014943Y011673D01*
X014943Y012052D01*
X015213Y012321D01*
X015594Y012321D01*
X015863Y012052D01*
X015863Y011671D01*
X015594Y011401D01*
X015294Y011401D01*
X014383Y010490D01*
X012718Y010490D01*
X012718Y010486D01*
X012448Y010216D01*
X012067Y010216D01*
X011798Y010486D01*
X011798Y010823D01*
X011410Y011210D01*
X011263Y011210D01*
X011358Y011115D01*
X011358Y010709D01*
X011071Y010422D01*
X010665Y010422D01*
X010378Y010709D01*
X010378Y011115D01*
X010537Y011274D01*
X010472Y011339D01*
X010472Y011339D01*
X009970Y011840D01*
X009079Y011840D01*
X009127Y011792D01*
X009127Y011411D01*
X008858Y011141D01*
X008554Y011141D01*
X007942Y010529D01*
X007942Y010140D01*
X008051Y010140D01*
X008220Y010070D01*
X008349Y009941D01*
X008402Y009814D01*
X008402Y010216D01*
X008207Y010411D01*
X008207Y010792D01*
X008477Y011061D01*
X008858Y011061D01*
X009127Y010792D01*
X009127Y010411D01*
X008858Y010141D01*
X008842Y010141D01*
X008842Y009539D01*
X008296Y008993D01*
X008349Y008941D01*
X008419Y008771D01*
X008419Y008588D01*
X008349Y008419D01*
X008220Y008290D01*
X008051Y008220D01*
X007308Y008220D01*
X007138Y008290D01*
X007009Y008419D01*
X007009Y008420D01*
X005771Y008420D01*
X005863Y008327D01*
X005863Y007946D01*
X005594Y007677D01*
X005213Y007677D01*
X004943Y007946D01*
X004943Y008327D01*
X005118Y008502D01*
X005072Y008549D01*
X004930Y008690D01*
X004159Y008690D01*
X004058Y008589D01*
X003889Y008519D01*
X003146Y008519D01*
X002992Y008583D01*
X002992Y008375D01*
X003146Y008439D01*
X003889Y008439D01*
X004058Y008369D01*
X004188Y008240D01*
X004258Y008071D01*
X004258Y007888D01*
X004188Y007719D01*
X004096Y007627D01*
X004573Y007150D01*
X004702Y007021D01*
X004702Y007003D01*
X004721Y007022D01*
X005102Y007022D01*
X005371Y006752D01*
X005371Y006371D01*
X005102Y006102D01*
X004721Y006102D01*
X004702Y006121D01*
X004702Y004771D01*
X005743Y003730D01*
X005753Y003720D01*
X005898Y003864D01*
X006279Y003864D01*
X006548Y003595D01*
X006548Y003214D01*
X006539Y003204D01*
X007093Y002650D01*
X007983Y002650D01*
X008170Y002837D01*
X008551Y002837D01*
X008582Y002806D01*
X008582Y003239D01*
X007785Y004036D01*
X007785Y004013D01*
X007515Y003744D01*
X007134Y003744D01*
X006865Y004013D01*
X006865Y004394D01*
X007134Y004664D01*
X007157Y004664D01*
X006773Y005048D01*
X006773Y004714D01*
X006503Y004444D01*
X006122Y004444D01*
X005853Y004714D01*
X005853Y005095D01*
X006122Y005364D01*
X006456Y005364D01*
X005702Y006119D01*
X005702Y006121D01*
X005451Y006371D01*
X005451Y006752D01*
X005721Y007022D01*
X006102Y007022D01*
X006371Y006752D01*
X006371Y006371D01*
X006221Y006221D01*
X006731Y005712D01*
X006731Y005941D01*
X007000Y006211D01*
X007381Y006211D01*
X007612Y005980D01*
X010050Y005980D01*
X009998Y006104D01*
X009998Y006287D01*
X010061Y006440D01*
X010003Y006440D01*
X009744Y006181D01*
X009362Y006181D01*
X009093Y006450D01*
X009093Y006831D01*
X009362Y007101D01*
X009744Y007101D01*
X009964Y006880D01*
X011230Y006880D01*
X011912Y007561D01*
X011917Y007567D01*
X011774Y007710D01*
X011774Y007791D01*
X011683Y007700D01*
X011269Y007700D01*
X011231Y007608D01*
X011101Y007479D01*
X010932Y007409D01*
X010189Y007409D01*
X010020Y007479D01*
X009891Y007608D01*
X009821Y007777D01*
X009821Y007960D01*
X009891Y008130D01*
X010020Y008259D01*
X010189Y008329D01*
X010932Y008329D01*
X011101Y008259D01*
X011220Y008140D01*
X011500Y008140D01*
X011780Y008420D01*
X011680Y008420D01*
X011301Y008800D01*
X011301Y008777D01*
X011231Y008608D01*
X011101Y008479D01*
X010932Y008409D01*
X010189Y008409D01*
X010020Y008479D01*
X009891Y008608D01*
X009821Y008777D01*
X009821Y008960D01*
X009891Y009130D01*
X010020Y009259D01*
X010189Y009329D01*
X010771Y009329D01*
X010691Y009409D01*
X010189Y009409D01*
X010020Y009479D01*
X009891Y009608D01*
X009821Y009777D01*
X009821Y009960D01*
X009891Y010130D01*
X010020Y010259D01*
X010189Y010329D01*
X010932Y010329D01*
X011101Y010259D01*
X011231Y010130D01*
X011301Y009960D01*
X011301Y009777D01*
X011231Y009608D01*
X011173Y009550D01*
X011863Y008860D01*
X013297Y008860D01*
X013247Y008911D01*
X013247Y009292D01*
X013516Y009561D01*
X013822Y009561D01*
X015943Y011683D01*
X015943Y012052D01*
X016213Y012321D01*
X016594Y012321D01*
X016863Y012052D01*
X016863Y011830D01*
X017067Y012034D01*
X017157Y012034D01*
X016232Y012959D01*
X016232Y013035D01*
X016056Y013107D01*
X015902Y013262D01*
X015868Y013344D01*
X015834Y013262D01*
X015680Y013107D01*
X015477Y013024D01*
X015259Y013024D01*
X015056Y013107D01*
X014902Y013262D01*
X014868Y013344D01*
X014834Y013262D01*
X014680Y013107D01*
X014477Y013024D01*
X014259Y013024D01*
X014056Y013107D01*
X013902Y013262D01*
X013818Y013464D01*
X013818Y013683D01*
X013902Y013885D01*
X014056Y014040D01*
X014259Y014124D01*
X014477Y014124D01*
X014680Y014040D01*
X014834Y013885D01*
X014868Y013804D01*
X014902Y013885D01*
X015056Y014040D01*
X015259Y014124D01*
X015477Y014124D01*
X015680Y014040D01*
X015834Y013885D01*
X015868Y013804D01*
X015902Y013885D01*
X016056Y014040D01*
X016259Y014124D01*
X016477Y014124D01*
X016680Y014040D01*
X016834Y013885D01*
X016918Y013683D01*
X016918Y013464D01*
X016834Y013262D01*
X016692Y013120D01*
X017803Y012010D01*
X017923Y011890D01*
X018067Y012034D01*
X018448Y012034D01*
X018718Y011764D01*
X018718Y011383D01*
X018448Y011114D01*
X018067Y011114D01*
X017932Y011249D01*
X017932Y011159D01*
X017590Y010817D01*
X017669Y010817D01*
X017938Y010548D01*
X017938Y010254D01*
X018342Y009851D01*
X018404Y009914D01*
X018404Y010264D01*
X018674Y010534D01*
X019055Y010534D01*
X019084Y010504D01*
X019995Y011414D01*
X019995Y011764D01*
X020264Y012034D01*
X020645Y012034D01*
X020915Y011764D01*
X020915Y011383D01*
X020645Y011114D01*
X020316Y011114D01*
X019324Y010121D01*
X019324Y009883D01*
X019312Y009871D01*
X019873Y009310D01*
X019895Y009310D01*
X020118Y009534D01*
X020467Y009534D01*
X020387Y009614D01*
X020118Y009614D01*
X019849Y009883D01*
X019849Y010264D01*
X020118Y010534D01*
X020499Y010534D01*
X020769Y010264D01*
X020769Y009883D01*
X020754Y009868D01*
X020992Y009631D01*
X020992Y008819D01*
X020863Y008690D01*
X020722Y008549D01*
X020722Y007349D01*
X020740Y007367D01*
X020920Y007442D01*
X021115Y007442D01*
X021295Y007367D01*
X021433Y007229D01*
X021508Y007049D01*
X021508Y006854D01*
X021433Y006674D01*
X021295Y006536D01*
X021115Y006462D01*
X020920Y006462D01*
X020740Y006536D01*
X020722Y006555D01*
X020722Y006349D01*
X020815Y006442D01*
X021221Y006442D01*
X021508Y006155D01*
X021508Y005749D01*
X021221Y005462D01*
X020902Y005462D01*
X020902Y003059D01*
X020773Y002930D01*
X020471Y002629D01*
X020573Y002527D01*
X020643Y002358D01*
X020643Y002175D01*
X020573Y002006D01*
X020444Y001877D01*
X020274Y001807D01*
X020091Y001807D01*
X019922Y001877D01*
X019793Y002006D01*
X019723Y002175D01*
X019723Y002358D01*
X019793Y002527D01*
X019922Y002657D01*
X020012Y002694D01*
X020012Y002791D01*
X020046Y002825D01*
X019922Y002877D01*
X019793Y003006D01*
X019723Y003175D01*
X019723Y003358D01*
X019793Y003527D01*
X019922Y003657D01*
X020091Y003727D01*
X020274Y003727D01*
X020444Y003657D01*
X020462Y003639D01*
X020462Y003895D01*
X020444Y003877D01*
X020274Y003807D01*
X020091Y003807D01*
X019922Y003877D01*
X019793Y004006D01*
X019791Y004010D01*
X017893Y004010D01*
X017572Y003689D01*
X017491Y003609D01*
X017573Y003527D01*
X017643Y003358D01*
X017643Y003175D01*
X017573Y003006D01*
X017444Y002877D01*
X017274Y002807D01*
X017091Y002807D01*
X016922Y002877D01*
X016793Y003006D01*
X016723Y003175D01*
X016723Y003358D01*
X016793Y003527D01*
X016863Y003597D01*
X016672Y003789D01*
X016672Y002431D01*
X016729Y002373D01*
X016793Y002527D01*
X016922Y002657D01*
X017091Y002727D01*
X017274Y002727D01*
X017444Y002657D01*
X017573Y002527D01*
X017643Y002358D01*
X017643Y002175D01*
X017573Y002006D01*
X017444Y001877D01*
X017290Y001813D01*
X017392Y001711D01*
X017392Y001678D01*
X017444Y001657D01*
X017573Y001527D01*
X017643Y001358D01*
X017643Y001175D01*
X017573Y001006D01*
X017444Y000877D01*
X017274Y000807D01*
X017091Y000807D01*
X016922Y000877D01*
X016793Y001006D01*
X016723Y001175D01*
X016723Y001358D01*
X016793Y001527D01*
X016873Y001607D01*
X016722Y001759D01*
X015643Y000680D01*
X007900Y000680D01*
X007772Y000809D01*
X006903Y001678D01*
X006903Y001545D01*
X006633Y001275D01*
X006252Y001275D01*
X005983Y001545D01*
X005983Y001926D01*
X006252Y002195D01*
X006385Y002195D01*
X005457Y003123D01*
X005279Y002944D01*
X004898Y002944D01*
X004628Y003214D01*
X004628Y003502D01*
X004250Y003881D01*
X004250Y003880D01*
X004180Y003711D01*
X004050Y003581D01*
X003881Y003511D01*
X003261Y003511D01*
X003493Y003280D01*
X003680Y003280D01*
X003831Y003431D01*
X004212Y003431D01*
X004482Y003162D01*
X004482Y002781D01*
X004212Y002511D01*
X003831Y002511D01*
X003626Y002716D02*
X001985Y002716D01*
X002089Y002875D02*
X003276Y002875D01*
X003117Y003033D02*
X002135Y003033D01*
X002135Y003192D02*
X002959Y003192D01*
X002800Y003350D02*
X002074Y003350D01*
X001947Y003509D02*
X002642Y003509D01*
X002483Y003667D02*
X001936Y003667D01*
X002069Y003826D02*
X002325Y003826D01*
X002630Y004143D02*
X002803Y004143D01*
X002770Y004063D02*
X002770Y004003D01*
X002273Y004500D01*
X002770Y004997D01*
X002770Y004880D01*
X002840Y004711D01*
X002969Y004581D01*
X003138Y004511D01*
X003619Y004511D01*
X003699Y004431D01*
X003138Y004431D01*
X002969Y004361D01*
X002840Y004232D01*
X002770Y004063D01*
X002909Y004301D02*
X002472Y004301D01*
X002313Y004460D02*
X003671Y004460D01*
X004111Y004642D02*
X004180Y004711D01*
X004250Y004880D01*
X004250Y005063D01*
X004180Y005232D01*
X004050Y005361D01*
X003881Y005431D01*
X003204Y005431D01*
X003284Y005511D01*
X003881Y005511D01*
X004050Y005581D01*
X004180Y005711D01*
X004250Y005880D01*
X004250Y006063D01*
X004180Y006232D01*
X004050Y006361D01*
X003881Y006431D01*
X003712Y006431D01*
X003712Y006519D01*
X003889Y006519D01*
X004058Y006589D01*
X004188Y006719D01*
X004244Y006856D01*
X004262Y006839D01*
X004262Y004589D01*
X004986Y003864D01*
X004898Y003864D01*
X004893Y003860D01*
X004111Y004642D01*
X004135Y004618D02*
X004262Y004618D01*
X004262Y004777D02*
X004207Y004777D01*
X004250Y004935D02*
X004262Y004935D01*
X004262Y005094D02*
X004237Y005094D01*
X004262Y005252D02*
X004160Y005252D01*
X004262Y005411D02*
X003931Y005411D01*
X004020Y005569D02*
X004262Y005569D01*
X004262Y005728D02*
X004187Y005728D01*
X004250Y005886D02*
X004262Y005886D01*
X004250Y006045D02*
X004262Y006045D01*
X004262Y006203D02*
X004192Y006203D01*
X004262Y006362D02*
X004050Y006362D01*
X003891Y006520D02*
X004262Y006520D01*
X004262Y006679D02*
X004147Y006679D01*
X004237Y006837D02*
X004262Y006837D01*
X004569Y007154D02*
X006943Y007154D01*
X007000Y007211D02*
X006731Y006941D01*
X006731Y006560D01*
X007000Y006291D01*
X007381Y006291D01*
X007651Y006560D01*
X007651Y006941D01*
X007381Y007211D01*
X007000Y007211D01*
X007116Y007313D02*
X004410Y007313D01*
X004252Y007471D02*
X006988Y007471D01*
X007009Y007419D02*
X006939Y007588D01*
X006939Y007771D01*
X007009Y007941D01*
X007138Y008070D01*
X007308Y008140D01*
X008051Y008140D01*
X008220Y008070D01*
X008349Y007941D01*
X008419Y007771D01*
X008419Y007588D01*
X008349Y007419D01*
X008220Y007290D01*
X008051Y007220D01*
X007308Y007220D01*
X007138Y007290D01*
X007009Y007419D01*
X007438Y007154D02*
X011504Y007154D01*
X011346Y006996D02*
X009849Y006996D01*
X010040Y007471D02*
X008370Y007471D01*
X008419Y007630D02*
X009882Y007630D01*
X009821Y007788D02*
X009410Y007788D01*
X009330Y007708D02*
X009600Y007978D01*
X009600Y008359D01*
X009330Y008628D01*
X008949Y008628D01*
X008680Y008359D01*
X008680Y007978D01*
X008949Y007708D01*
X009330Y007708D01*
X009568Y007947D02*
X009821Y007947D01*
X009881Y008105D02*
X009600Y008105D01*
X009600Y008264D02*
X010031Y008264D01*
X010158Y008422D02*
X009536Y008422D01*
X009378Y008581D02*
X009919Y008581D01*
X009837Y008739D02*
X009361Y008739D01*
X009330Y008708D02*
X009600Y008978D01*
X009600Y009359D01*
X009330Y009628D01*
X008949Y009628D01*
X008680Y009359D01*
X008680Y008978D01*
X008949Y008708D01*
X009330Y008708D01*
X009519Y008898D02*
X009821Y008898D01*
X009860Y009056D02*
X009600Y009056D01*
X009600Y009215D02*
X009976Y009215D01*
X009585Y009373D02*
X010727Y009373D01*
X011191Y009532D02*
X011798Y009532D01*
X011798Y009486D02*
X012067Y009216D01*
X012448Y009216D01*
X012718Y009486D01*
X012718Y009867D01*
X012448Y010136D01*
X012067Y010136D01*
X011798Y009867D01*
X011798Y009486D01*
X011910Y009373D02*
X011350Y009373D01*
X011508Y009215D02*
X013247Y009215D01*
X013247Y009056D02*
X011667Y009056D01*
X011825Y008898D02*
X013260Y008898D01*
X013923Y008420D02*
X013930Y008420D01*
X014143Y008207D01*
X014136Y008207D01*
X013923Y008420D01*
X014079Y008264D02*
X014087Y008264D01*
X014392Y008581D02*
X015140Y008581D01*
X015115Y008570D02*
X014985Y008441D01*
X014915Y008271D01*
X014915Y008088D01*
X014937Y008035D01*
X014242Y008731D01*
X014114Y008858D01*
X014167Y008911D01*
X014167Y009284D01*
X015585Y010702D01*
X015585Y010517D01*
X015855Y010248D01*
X016236Y010248D01*
X016505Y010517D01*
X016505Y010898D01*
X016236Y011168D01*
X016050Y011168D01*
X016284Y011401D01*
X016594Y011401D01*
X016798Y011605D01*
X016798Y011383D01*
X017067Y011114D01*
X017264Y011114D01*
X016450Y010300D01*
X016322Y010171D01*
X016322Y010082D01*
X016236Y010168D01*
X015855Y010168D01*
X015585Y009898D01*
X015585Y009517D01*
X015855Y009248D01*
X016236Y009248D01*
X016322Y009333D01*
X016322Y009091D01*
X015870Y008640D01*
X015284Y008640D01*
X015115Y008570D01*
X014978Y008422D02*
X014551Y008422D01*
X014709Y008264D02*
X014915Y008264D01*
X014915Y008105D02*
X014868Y008105D01*
X014726Y007625D02*
X014830Y007520D01*
X015065Y007520D01*
X014985Y007441D01*
X014915Y007271D01*
X014915Y007088D01*
X014985Y006919D01*
X015063Y006842D01*
X014200Y005980D01*
X011427Y005980D01*
X011478Y006104D01*
X011478Y006287D01*
X011414Y006442D01*
X011774Y006801D01*
X011774Y006710D01*
X012044Y006440D01*
X012425Y006440D01*
X012694Y006710D01*
X012694Y007091D01*
X012535Y007250D01*
X013033Y007250D01*
X013072Y007290D01*
X013075Y007287D01*
X013456Y007287D01*
X013726Y007556D01*
X013726Y007937D01*
X013513Y008150D01*
X013570Y008150D01*
X013806Y007915D01*
X013806Y007556D01*
X014075Y007287D01*
X014456Y007287D01*
X014726Y007556D01*
X014726Y007625D01*
X014640Y007471D02*
X015016Y007471D01*
X014932Y007313D02*
X014482Y007313D01*
X014049Y007313D02*
X013482Y007313D01*
X013640Y007471D02*
X013891Y007471D01*
X013806Y007630D02*
X013726Y007630D01*
X013726Y007788D02*
X013806Y007788D01*
X013774Y007947D02*
X013717Y007947D01*
X013615Y008105D02*
X013558Y008105D01*
X013018Y008150D02*
X012806Y007937D01*
X012806Y007690D01*
X012674Y007690D01*
X012694Y007710D01*
X012694Y008091D01*
X012635Y008150D01*
X013018Y008150D01*
X012973Y008105D02*
X012680Y008105D01*
X012694Y007947D02*
X012815Y007947D01*
X012806Y007788D02*
X012694Y007788D01*
X012631Y007154D02*
X014915Y007154D01*
X014954Y006996D02*
X012694Y006996D01*
X012694Y006837D02*
X015057Y006837D01*
X014899Y006679D02*
X012663Y006679D01*
X012504Y006520D02*
X014740Y006520D01*
X014582Y006362D02*
X011447Y006362D01*
X011478Y006203D02*
X014423Y006203D01*
X014265Y006045D02*
X011453Y006045D01*
X011493Y006520D02*
X011964Y006520D01*
X011806Y006679D02*
X011651Y006679D01*
X011663Y007313D02*
X008242Y007313D01*
X008362Y007101D02*
X008093Y006831D01*
X008093Y006450D01*
X008362Y006181D01*
X008744Y006181D01*
X009013Y006450D01*
X009013Y006831D01*
X008744Y007101D01*
X008362Y007101D01*
X008257Y006996D02*
X007597Y006996D01*
X007651Y006837D02*
X008099Y006837D01*
X008093Y006679D02*
X007651Y006679D01*
X007610Y006520D02*
X008093Y006520D01*
X008182Y006362D02*
X007452Y006362D01*
X007389Y006203D02*
X008340Y006203D01*
X008766Y006203D02*
X009340Y006203D01*
X009182Y006362D02*
X008924Y006362D01*
X009013Y006520D02*
X009093Y006520D01*
X009093Y006679D02*
X009013Y006679D01*
X009007Y006837D02*
X009099Y006837D01*
X009257Y006996D02*
X008849Y006996D01*
X008869Y007788D02*
X008412Y007788D01*
X008343Y007947D02*
X008711Y007947D01*
X008680Y008105D02*
X008135Y008105D01*
X008156Y008264D02*
X008680Y008264D01*
X008743Y008422D02*
X008350Y008422D01*
X008416Y008581D02*
X008901Y008581D01*
X008918Y008739D02*
X008419Y008739D01*
X008367Y008898D02*
X008760Y008898D01*
X008680Y009056D02*
X008359Y009056D01*
X008517Y009215D02*
X008680Y009215D01*
X008676Y009373D02*
X008694Y009373D01*
X008834Y009532D02*
X008852Y009532D01*
X008842Y009690D02*
X009857Y009690D01*
X009821Y009849D02*
X008842Y009849D01*
X008842Y010007D02*
X009840Y010007D01*
X009927Y010166D02*
X008882Y010166D01*
X009040Y010324D02*
X010177Y010324D01*
X010605Y010483D02*
X009127Y010483D01*
X009127Y010641D02*
X010446Y010641D01*
X010378Y010800D02*
X009119Y010800D01*
X008961Y010958D02*
X010378Y010958D01*
X010379Y011117D02*
X008529Y011117D01*
X008373Y010958D02*
X008371Y010958D01*
X008215Y010800D02*
X008212Y010800D01*
X008207Y010641D02*
X008054Y010641D01*
X007942Y010483D02*
X008207Y010483D01*
X008294Y010324D02*
X007942Y010324D01*
X007942Y010166D02*
X008402Y010166D01*
X008402Y010007D02*
X008283Y010007D01*
X008387Y009849D02*
X008402Y009849D01*
X007502Y010140D02*
X007451Y010140D01*
X007502Y010191D01*
X007502Y010140D01*
X007502Y010166D02*
X007476Y010166D01*
X007075Y010007D02*
X006576Y010007D01*
X006576Y009860D02*
X006307Y009590D01*
X005925Y009590D01*
X005656Y009860D01*
X005656Y010241D01*
X005925Y010510D01*
X006307Y010510D01*
X006576Y010241D01*
X006576Y009860D01*
X006565Y009849D02*
X006971Y009849D01*
X006939Y009690D02*
X006406Y009690D01*
X006963Y009532D02*
X005659Y009532D01*
X005818Y009373D02*
X007055Y009373D01*
X007124Y009056D02*
X005863Y009056D01*
X005863Y009215D02*
X007895Y009215D01*
X006991Y008898D02*
X005815Y008898D01*
X005040Y008581D02*
X004037Y008581D01*
X003931Y008422D02*
X005038Y008422D01*
X004943Y008264D02*
X004164Y008264D01*
X004243Y008105D02*
X004943Y008105D01*
X004943Y007947D02*
X004258Y007947D01*
X004216Y007788D02*
X005102Y007788D01*
X005705Y007788D02*
X006946Y007788D01*
X006939Y007630D02*
X004098Y007630D01*
X005128Y006996D02*
X005694Y006996D01*
X005536Y006837D02*
X005287Y006837D01*
X005371Y006679D02*
X005451Y006679D01*
X005451Y006520D02*
X005371Y006520D01*
X005361Y006362D02*
X005461Y006362D01*
X005620Y006203D02*
X005203Y006203D01*
X004702Y006045D02*
X005776Y006045D01*
X005934Y005886D02*
X004702Y005886D01*
X004702Y005728D02*
X006093Y005728D01*
X006251Y005569D02*
X004702Y005569D01*
X004702Y005411D02*
X006410Y005411D01*
X006010Y005252D02*
X005616Y005252D01*
X005503Y005364D02*
X005122Y005364D01*
X004853Y005095D01*
X004853Y004714D01*
X005122Y004444D01*
X005503Y004444D01*
X005773Y004714D01*
X005773Y005095D01*
X005503Y005364D01*
X005773Y005094D02*
X005853Y005094D01*
X005853Y004935D02*
X005773Y004935D01*
X005773Y004777D02*
X005853Y004777D01*
X005949Y004618D02*
X005677Y004618D01*
X005518Y004460D02*
X006107Y004460D01*
X006518Y004460D02*
X006930Y004460D01*
X007089Y004618D02*
X006677Y004618D01*
X006773Y004777D02*
X007044Y004777D01*
X006885Y004935D02*
X006773Y004935D01*
X007152Y005291D02*
X007381Y005291D01*
X007630Y005540D01*
X010152Y005540D01*
X010068Y005456D01*
X009998Y005287D01*
X009998Y005104D01*
X010068Y004935D01*
X010197Y004806D01*
X010367Y004736D01*
X011110Y004736D01*
X011279Y004806D01*
X011408Y004935D01*
X012374Y004935D01*
X012374Y004843D02*
X012661Y004556D01*
X013067Y004556D01*
X013354Y004843D01*
X013354Y005249D01*
X013067Y005536D01*
X012661Y005536D01*
X012374Y005249D01*
X012374Y004843D01*
X012441Y004777D02*
X011208Y004777D01*
X011110Y004656D02*
X010367Y004656D01*
X010197Y004586D01*
X010068Y004456D01*
X009998Y004287D01*
X009998Y004181D01*
X009873Y004305D01*
X009492Y004305D01*
X009472Y004284D01*
X009472Y004617D01*
X009639Y004785D01*
X009639Y005166D01*
X009370Y005435D01*
X008988Y005435D01*
X008719Y005166D01*
X008719Y004785D01*
X008988Y004515D01*
X009032Y004515D01*
X009032Y003509D01*
X009160Y003380D01*
X009340Y003200D01*
X009387Y003200D01*
X009223Y003036D01*
X009223Y002655D01*
X009492Y002385D01*
X009873Y002385D01*
X010143Y002655D01*
X010143Y002757D01*
X010266Y002634D01*
X010199Y002567D01*
X010199Y002186D01*
X010469Y001917D01*
X010850Y001917D01*
X011119Y002186D01*
X011119Y002567D01*
X010850Y002837D01*
X010686Y002837D01*
X010012Y003511D01*
X010005Y003517D01*
X010143Y003655D01*
X010143Y003860D01*
X010197Y003806D01*
X010367Y003736D01*
X011110Y003736D01*
X011279Y003806D01*
X011408Y003935D01*
X011478Y004104D01*
X011478Y004287D01*
X011408Y004456D01*
X011279Y004586D01*
X011110Y004656D01*
X011201Y004618D02*
X012599Y004618D01*
X012374Y005094D02*
X011474Y005094D01*
X011478Y005104D02*
X011478Y005287D01*
X011408Y005456D01*
X011324Y005540D01*
X014383Y005540D01*
X014920Y006077D01*
X014985Y005919D01*
X015115Y005790D01*
X015284Y005720D01*
X016027Y005720D01*
X016142Y005767D01*
X016142Y004821D01*
X016007Y004955D01*
X015626Y004955D01*
X015357Y004685D01*
X015357Y004304D01*
X015626Y004035D01*
X015885Y004035D01*
X016232Y003689D01*
X016232Y003518D01*
X016204Y003546D01*
X015823Y003546D01*
X015554Y003276D01*
X015554Y002895D01*
X015823Y002626D01*
X016204Y002626D01*
X016232Y002653D01*
X016232Y002518D01*
X016204Y002546D01*
X015823Y002546D01*
X015554Y002276D01*
X015554Y001895D01*
X015823Y001626D01*
X015966Y001626D01*
X015460Y001120D01*
X014025Y001120D01*
X014092Y001186D01*
X014092Y001567D01*
X013822Y001837D01*
X013441Y001837D01*
X013172Y001567D01*
X013172Y001186D01*
X013238Y001120D01*
X011053Y001120D01*
X011119Y001186D01*
X011119Y001567D01*
X010850Y001837D01*
X010469Y001837D01*
X010199Y001567D01*
X010199Y001186D01*
X010266Y001120D01*
X008754Y001120D01*
X008820Y001186D01*
X008820Y001507D01*
X009022Y001709D01*
X009022Y003421D01*
X008893Y003550D01*
X007152Y005291D01*
X007191Y005252D02*
X007805Y005252D01*
X007719Y005166D02*
X007719Y004785D01*
X007988Y004515D01*
X008370Y004515D01*
X008639Y004785D01*
X008639Y005166D01*
X008370Y005435D01*
X007988Y005435D01*
X007719Y005166D01*
X007719Y005094D02*
X007349Y005094D01*
X007508Y004935D02*
X007719Y004935D01*
X007727Y004777D02*
X007666Y004777D01*
X007825Y004618D02*
X007886Y004618D01*
X007983Y004460D02*
X009032Y004460D01*
X008886Y004618D02*
X008472Y004618D01*
X008631Y004777D02*
X008727Y004777D01*
X008719Y004935D02*
X008639Y004935D01*
X008639Y005094D02*
X008719Y005094D01*
X008805Y005252D02*
X008553Y005252D01*
X008394Y005411D02*
X008964Y005411D01*
X009394Y005411D02*
X010049Y005411D01*
X009998Y005252D02*
X009553Y005252D01*
X009639Y005094D02*
X010003Y005094D01*
X010068Y004935D02*
X009639Y004935D01*
X009631Y004777D02*
X010268Y004777D01*
X010275Y004618D02*
X009472Y004618D01*
X009472Y004460D02*
X010071Y004460D01*
X010004Y004301D02*
X009878Y004301D01*
X009488Y004301D02*
X009472Y004301D01*
X009032Y004301D02*
X008142Y004301D01*
X008300Y004143D02*
X009032Y004143D01*
X009032Y003984D02*
X008459Y003984D01*
X008617Y003826D02*
X009032Y003826D01*
X009032Y003667D02*
X008776Y003667D01*
X008934Y003509D02*
X009032Y003509D01*
X009022Y003350D02*
X009190Y003350D01*
X009022Y003192D02*
X009379Y003192D01*
X009223Y003033D02*
X009022Y003033D01*
X009022Y002875D02*
X009223Y002875D01*
X009223Y002716D02*
X009022Y002716D01*
X009022Y002558D02*
X009320Y002558D01*
X009479Y002399D02*
X009022Y002399D01*
X009022Y002241D02*
X010199Y002241D01*
X010199Y002399D02*
X009887Y002399D01*
X010046Y002558D02*
X010199Y002558D01*
X010184Y002716D02*
X010143Y002716D01*
X010490Y003033D02*
X011821Y003033D01*
X011821Y002895D02*
X012091Y002626D01*
X012472Y002626D01*
X012741Y002895D01*
X012741Y003276D01*
X012472Y003546D01*
X012091Y003546D01*
X011821Y003276D01*
X011821Y002895D01*
X011842Y002875D02*
X010648Y002875D01*
X010971Y002716D02*
X012000Y002716D01*
X012091Y002546D02*
X011821Y002276D01*
X011821Y001895D01*
X012091Y001626D01*
X012472Y001626D01*
X012741Y001895D01*
X012741Y002276D01*
X012472Y002546D01*
X012091Y002546D01*
X011944Y002399D02*
X011119Y002399D01*
X011119Y002241D02*
X011821Y002241D01*
X011821Y002082D02*
X011015Y002082D01*
X010857Y001924D02*
X011821Y001924D01*
X011951Y001765D02*
X010922Y001765D01*
X011080Y001607D02*
X013211Y001607D01*
X013172Y001448D02*
X011119Y001448D01*
X011119Y001290D02*
X013172Y001290D01*
X013227Y001131D02*
X011064Y001131D01*
X010255Y001131D02*
X008765Y001131D01*
X008820Y001290D02*
X010199Y001290D01*
X010199Y001448D02*
X008820Y001448D01*
X008919Y001607D02*
X010238Y001607D01*
X010397Y001765D02*
X009022Y001765D01*
X009022Y001924D02*
X010462Y001924D01*
X010304Y002082D02*
X009022Y002082D01*
X008582Y001948D02*
X008582Y001891D01*
X008527Y001837D01*
X008170Y001837D01*
X007900Y001567D01*
X007900Y001303D01*
X006993Y002210D01*
X007900Y002210D01*
X007900Y002186D01*
X008170Y001917D01*
X008551Y001917D01*
X008582Y001948D01*
X008582Y001924D02*
X008557Y001924D01*
X008163Y001924D02*
X007279Y001924D01*
X007438Y001765D02*
X008098Y001765D01*
X007939Y001607D02*
X007596Y001607D01*
X007755Y001448D02*
X007900Y001448D01*
X007449Y001131D02*
X003048Y001131D01*
X003048Y000973D02*
X007608Y000973D01*
X007766Y000814D02*
X002908Y000814D01*
X003048Y001290D02*
X005238Y001290D01*
X005252Y001275D02*
X005633Y001275D01*
X005903Y001545D01*
X005903Y001926D01*
X005633Y002195D01*
X005252Y002195D01*
X004983Y001926D01*
X004983Y001545D01*
X005252Y001275D01*
X005079Y001448D02*
X002936Y001448D01*
X002159Y001924D02*
X000682Y001924D01*
X000682Y002082D02*
X002128Y002082D01*
X002128Y002241D02*
X000682Y002241D01*
X000682Y002399D02*
X002192Y002399D01*
X002351Y002558D02*
X001728Y002558D01*
X001441Y002558D02*
X000682Y002558D01*
X000682Y002716D02*
X001184Y002716D01*
X001080Y002875D02*
X000682Y002875D01*
X000682Y003033D02*
X001035Y003033D01*
X001035Y003192D02*
X000682Y003192D01*
X000682Y003350D02*
X001095Y003350D01*
X001222Y003509D02*
X000682Y003509D01*
X000682Y003667D02*
X001233Y003667D01*
X001035Y004143D02*
X000682Y004143D01*
X000682Y004301D02*
X001075Y004301D01*
X001173Y004460D02*
X000682Y004460D01*
X000682Y004618D02*
X001414Y004618D01*
X001755Y004618D02*
X001768Y004618D01*
X001927Y004777D02*
X000682Y004777D01*
X000682Y004935D02*
X002085Y004935D01*
X002244Y005094D02*
X001862Y005094D01*
X002041Y005252D02*
X002402Y005252D01*
X002561Y005411D02*
X002112Y005411D01*
X002135Y005569D02*
X002719Y005569D01*
X002833Y005728D02*
X002116Y005728D01*
X002050Y005886D02*
X002770Y005886D01*
X002770Y006045D02*
X001885Y006045D01*
X001992Y006203D02*
X002828Y006203D01*
X002818Y006790D02*
X002362Y006790D01*
X002362Y008371D01*
X002233Y008500D01*
X002233Y008500D01*
X002020Y008712D01*
X002051Y008742D01*
X002135Y008945D01*
X002135Y009163D01*
X002091Y009268D01*
X002882Y010059D01*
X003022Y010001D01*
X003217Y010001D01*
X003327Y010046D01*
X002680Y009400D01*
X002552Y009271D01*
X002552Y007739D01*
X002912Y007379D01*
X002949Y007341D01*
X002848Y007240D01*
X002778Y007071D01*
X002778Y006888D01*
X002818Y006790D01*
X002799Y006837D02*
X002362Y006837D01*
X002362Y006996D02*
X002778Y006996D01*
X002812Y007154D02*
X002362Y007154D01*
X002362Y007313D02*
X002920Y007313D01*
X002819Y007471D02*
X002362Y007471D01*
X002362Y007630D02*
X002661Y007630D01*
X002552Y007788D02*
X002362Y007788D01*
X002362Y007947D02*
X002552Y007947D01*
X002552Y008105D02*
X002362Y008105D01*
X002362Y008264D02*
X002552Y008264D01*
X002552Y008422D02*
X002311Y008422D01*
X002152Y008581D02*
X002552Y008581D01*
X002552Y008739D02*
X002047Y008739D01*
X002115Y008898D02*
X002552Y008898D01*
X002552Y009056D02*
X002135Y009056D01*
X002113Y009215D02*
X002552Y009215D01*
X002653Y009373D02*
X002196Y009373D01*
X002354Y009532D02*
X002812Y009532D01*
X002970Y009690D02*
X002513Y009690D01*
X002671Y009849D02*
X003129Y009849D01*
X003232Y010007D02*
X003287Y010007D01*
X003008Y010007D02*
X002830Y010007D01*
X002524Y010324D02*
X002037Y010324D01*
X002011Y010262D02*
X001857Y010107D01*
X001655Y010024D01*
X001436Y010024D01*
X001234Y010107D01*
X001079Y010262D01*
X000995Y010464D01*
X000995Y010683D01*
X001079Y010885D01*
X001234Y011040D01*
X001315Y011074D01*
X001234Y011107D01*
X001079Y011262D01*
X000995Y011464D01*
X000995Y011683D01*
X001079Y011885D01*
X001234Y012040D01*
X001315Y012074D01*
X001234Y012107D01*
X001079Y012262D01*
X000995Y012464D01*
X000995Y012683D01*
X001079Y012885D01*
X001234Y013040D01*
X001436Y013124D01*
X001655Y013124D01*
X001857Y013040D01*
X002011Y012885D01*
X002095Y012683D01*
X002095Y012464D01*
X002011Y012262D01*
X001857Y012107D01*
X001775Y012074D01*
X001857Y012040D01*
X002011Y011885D01*
X002095Y011683D01*
X002095Y011464D01*
X002011Y011262D01*
X001857Y011107D01*
X001775Y011074D01*
X001857Y011040D01*
X002011Y010885D01*
X002095Y010683D01*
X002095Y010464D01*
X002011Y010262D01*
X001915Y010166D02*
X002366Y010166D01*
X002207Y010007D02*
X000682Y010007D01*
X000682Y009849D02*
X002049Y009849D01*
X001890Y009690D02*
X000682Y009690D01*
X000682Y009532D02*
X001300Y009532D01*
X001126Y009373D02*
X000682Y009373D01*
X000682Y009215D02*
X001056Y009215D01*
X001035Y009056D02*
X000682Y009056D01*
X000682Y008898D02*
X001054Y008898D01*
X001122Y008739D02*
X000682Y008739D01*
X000682Y008581D02*
X001290Y008581D01*
X001175Y008422D02*
X000682Y008422D01*
X000682Y008264D02*
X001076Y008264D01*
X001035Y008105D02*
X000682Y008105D01*
X000682Y007947D02*
X001035Y007947D01*
X001099Y007788D02*
X000682Y007788D01*
X000682Y007630D02*
X001231Y007630D01*
X000682Y007471D02*
X001922Y007471D01*
X001922Y007313D02*
X000682Y007313D01*
X000682Y007154D02*
X001922Y007154D01*
X001229Y006996D02*
X000682Y006996D01*
X000682Y006837D02*
X001098Y006837D01*
X001035Y006679D02*
X000682Y006679D01*
X000682Y006520D02*
X001035Y006520D01*
X001077Y006362D02*
X000682Y006362D01*
X000682Y006203D02*
X001177Y006203D01*
X001284Y006045D02*
X000682Y006045D01*
X000682Y005886D02*
X001119Y005886D01*
X001053Y005728D02*
X000682Y005728D01*
X000682Y005569D02*
X001035Y005569D01*
X001057Y005411D02*
X000682Y005411D01*
X000682Y005252D02*
X001128Y005252D01*
X001307Y005094D02*
X000682Y005094D01*
X002391Y004618D02*
X002933Y004618D01*
X002813Y004777D02*
X002549Y004777D01*
X002708Y004935D02*
X002770Y004935D01*
X004293Y004460D02*
X004391Y004460D01*
X004452Y004301D02*
X004549Y004301D01*
X004610Y004143D02*
X004708Y004143D01*
X004769Y003984D02*
X004866Y003984D01*
X005172Y004301D02*
X006865Y004301D01*
X006865Y004143D02*
X005330Y004143D01*
X005489Y003984D02*
X006894Y003984D01*
X007052Y003826D02*
X006318Y003826D01*
X006476Y003667D02*
X008153Y003667D01*
X007995Y003826D02*
X007597Y003826D01*
X007515Y003664D02*
X007134Y003664D01*
X006865Y003394D01*
X006865Y003013D01*
X007134Y002744D01*
X007515Y002744D01*
X007785Y003013D01*
X007785Y003394D01*
X007515Y003664D01*
X007670Y003509D02*
X008312Y003509D01*
X008470Y003350D02*
X007785Y003350D01*
X007785Y003192D02*
X008582Y003192D01*
X008582Y003033D02*
X007785Y003033D01*
X007646Y002875D02*
X008582Y002875D01*
X008049Y002716D02*
X007027Y002716D01*
X007003Y002875D02*
X006868Y002875D01*
X006865Y003033D02*
X006710Y003033D01*
X006865Y003192D02*
X006551Y003192D01*
X006548Y003350D02*
X006865Y003350D01*
X006979Y003509D02*
X006548Y003509D01*
X005859Y003826D02*
X005647Y003826D01*
X004622Y003509D02*
X003264Y003509D01*
X003423Y003350D02*
X003750Y003350D01*
X004136Y003667D02*
X004463Y003667D01*
X004305Y003826D02*
X004227Y003826D01*
X004293Y003350D02*
X004628Y003350D01*
X004651Y003192D02*
X004452Y003192D01*
X004482Y003033D02*
X004809Y003033D01*
X004482Y002875D02*
X005706Y002875D01*
X005547Y003033D02*
X005368Y003033D01*
X005864Y002716D02*
X004417Y002716D01*
X004258Y002558D02*
X006023Y002558D01*
X006181Y002399D02*
X004244Y002399D01*
X004403Y002241D02*
X006340Y002241D01*
X006139Y002082D02*
X005746Y002082D01*
X005903Y001924D02*
X005983Y001924D01*
X005983Y001765D02*
X005903Y001765D01*
X005903Y001607D02*
X005983Y001607D01*
X006079Y001448D02*
X005806Y001448D01*
X005648Y001290D02*
X006238Y001290D01*
X006648Y001290D02*
X007291Y001290D01*
X007132Y001448D02*
X006806Y001448D01*
X006903Y001607D02*
X006974Y001607D01*
X007121Y002082D02*
X008004Y002082D01*
X010014Y003509D02*
X012054Y003509D01*
X011895Y003350D02*
X010173Y003350D01*
X010331Y003192D02*
X011821Y003192D01*
X012509Y003509D02*
X014644Y003509D01*
X014681Y003546D02*
X014412Y003276D01*
X014412Y002895D01*
X014681Y002626D01*
X015062Y002626D01*
X015332Y002895D01*
X015332Y003276D01*
X015062Y003546D01*
X014681Y003546D01*
X014486Y003350D02*
X012667Y003350D01*
X012741Y003192D02*
X014412Y003192D01*
X014412Y003033D02*
X012741Y003033D01*
X012721Y002875D02*
X014432Y002875D01*
X014591Y002716D02*
X013943Y002716D01*
X013822Y002837D02*
X013441Y002837D01*
X013172Y002567D01*
X013172Y002186D01*
X013441Y001917D01*
X013822Y001917D01*
X014092Y002186D01*
X014092Y002567D01*
X013822Y002837D01*
X014092Y002558D02*
X016232Y002558D01*
X016672Y002558D02*
X016823Y002558D01*
X016740Y002399D02*
X016704Y002399D01*
X016672Y002716D02*
X017066Y002716D01*
X016928Y002875D02*
X016672Y002875D01*
X016672Y003033D02*
X016782Y003033D01*
X016723Y003192D02*
X016672Y003192D01*
X016672Y003350D02*
X016723Y003350D01*
X016672Y003509D02*
X016785Y003509D01*
X016793Y003667D02*
X016672Y003667D01*
X016232Y003667D02*
X010143Y003667D01*
X010143Y003826D02*
X010178Y003826D01*
X011298Y003826D02*
X016095Y003826D01*
X015936Y003984D02*
X011428Y003984D01*
X011478Y004143D02*
X014519Y004143D01*
X014626Y004035D02*
X015007Y004035D01*
X015277Y004304D01*
X015277Y004685D01*
X015007Y004955D01*
X014626Y004955D01*
X014357Y004685D01*
X014357Y004304D01*
X014626Y004035D01*
X014360Y004301D02*
X011472Y004301D01*
X011405Y004460D02*
X014357Y004460D01*
X014357Y004618D02*
X014111Y004618D01*
X014142Y004631D02*
X014279Y004769D01*
X014354Y004949D01*
X014354Y005144D01*
X014279Y005324D01*
X014142Y005462D01*
X013962Y005536D01*
X013767Y005536D01*
X013586Y005462D01*
X013449Y005324D01*
X013374Y005144D01*
X013374Y004949D01*
X013449Y004769D01*
X013586Y004631D01*
X013767Y004556D01*
X013962Y004556D01*
X014142Y004631D01*
X014283Y004777D02*
X014448Y004777D01*
X014348Y004935D02*
X014606Y004935D01*
X014354Y005094D02*
X016142Y005094D01*
X016142Y005252D02*
X014309Y005252D01*
X014193Y005411D02*
X016142Y005411D01*
X016142Y005569D02*
X014412Y005569D01*
X014570Y005728D02*
X015266Y005728D01*
X015019Y005886D02*
X014729Y005886D01*
X014887Y006045D02*
X014934Y006045D01*
X015483Y006640D02*
X015563Y006720D01*
X016027Y006720D01*
X016142Y006767D01*
X016142Y006593D01*
X016027Y006640D01*
X015483Y006640D01*
X015521Y006679D02*
X016142Y006679D01*
X016582Y006679D02*
X017042Y006679D01*
X017042Y006837D02*
X016582Y006837D01*
X016582Y006996D02*
X017042Y006996D01*
X017042Y007154D02*
X016582Y007154D01*
X016582Y007313D02*
X017042Y007313D01*
X017042Y007471D02*
X016582Y007471D01*
X016229Y007823D01*
X016325Y007919D01*
X016395Y008088D01*
X016395Y008271D01*
X016325Y008441D01*
X016309Y008457D01*
X016633Y008780D01*
X016762Y008909D01*
X016762Y009989D01*
X017018Y010246D01*
X017018Y010167D01*
X017288Y009897D01*
X017669Y009897D01*
X017671Y009899D01*
X018030Y009540D01*
X017938Y009448D01*
X017938Y009548D01*
X017669Y009817D01*
X017288Y009817D01*
X017018Y009548D01*
X017018Y009167D01*
X017288Y008897D01*
X017388Y008897D01*
X017042Y008551D01*
X017042Y004706D01*
X016922Y004657D01*
X016793Y004527D01*
X016723Y004359D01*
X016582Y004501D01*
X016582Y007471D01*
X016423Y007630D02*
X017042Y007630D01*
X017042Y007788D02*
X016265Y007788D01*
X016337Y007947D02*
X017042Y007947D01*
X017042Y008105D02*
X016395Y008105D01*
X016395Y008264D02*
X017042Y008264D01*
X017042Y008422D02*
X016333Y008422D01*
X016433Y008581D02*
X017071Y008581D01*
X017229Y008739D02*
X016592Y008739D01*
X016633Y008780D02*
X016633Y008780D01*
X016750Y008898D02*
X017287Y008898D01*
X017129Y009056D02*
X016762Y009056D01*
X016762Y009215D02*
X017018Y009215D01*
X017018Y009373D02*
X016762Y009373D01*
X016762Y009532D02*
X017018Y009532D01*
X017161Y009690D02*
X016762Y009690D01*
X016762Y009849D02*
X017722Y009849D01*
X017796Y009690D02*
X017880Y009690D01*
X017938Y009532D02*
X018022Y009532D01*
X018433Y009320D02*
X018562Y009449D01*
X018726Y009614D01*
X018947Y009614D01*
X019027Y009534D01*
X018674Y009534D01*
X018404Y009264D01*
X018404Y008883D01*
X018674Y008614D01*
X019055Y008614D01*
X019324Y008883D01*
X019324Y009236D01*
X019690Y008870D01*
X019862Y008870D01*
X020118Y008614D01*
X020282Y008614D01*
X020282Y005669D01*
X020410Y005540D01*
X020462Y005489D01*
X020462Y004639D01*
X020444Y004657D01*
X020274Y004727D01*
X020091Y004727D01*
X019922Y004657D01*
X019793Y004527D01*
X019761Y004450D01*
X017710Y004450D01*
X017636Y004375D01*
X017573Y004527D01*
X017482Y004619D01*
X017482Y005286D01*
X017516Y005251D01*
X017897Y005251D01*
X018167Y005521D01*
X018167Y005902D01*
X017897Y006171D01*
X017516Y006171D01*
X017482Y006137D01*
X017482Y006286D01*
X017516Y006251D01*
X017897Y006251D01*
X018167Y006521D01*
X018167Y006530D01*
X018754Y006530D01*
X018754Y006521D01*
X019024Y006251D01*
X019405Y006251D01*
X019674Y006521D01*
X019674Y006902D01*
X019405Y007171D01*
X019024Y007171D01*
X018822Y006970D01*
X018099Y006970D01*
X017897Y007171D01*
X017516Y007171D01*
X017482Y007137D01*
X017482Y008369D01*
X018433Y009320D01*
X018433Y009320D01*
X018486Y009373D02*
X018513Y009373D01*
X018562Y009449D02*
X018562Y009449D01*
X018644Y009532D02*
X018671Y009532D01*
X018404Y009215D02*
X018327Y009215D01*
X018404Y009056D02*
X018169Y009056D01*
X018010Y008898D02*
X018404Y008898D01*
X018548Y008739D02*
X017852Y008739D01*
X017693Y008581D02*
X020282Y008581D01*
X020282Y008422D02*
X017535Y008422D01*
X017482Y008264D02*
X020282Y008264D01*
X020282Y008105D02*
X017482Y008105D01*
X017482Y007947D02*
X020282Y007947D01*
X020282Y007788D02*
X017482Y007788D01*
X017482Y007630D02*
X020282Y007630D01*
X020282Y007471D02*
X017482Y007471D01*
X017482Y007313D02*
X020282Y007313D01*
X020282Y007154D02*
X019422Y007154D01*
X019581Y006996D02*
X020282Y006996D01*
X020282Y006837D02*
X019674Y006837D01*
X019674Y006679D02*
X020282Y006679D01*
X020282Y006520D02*
X019673Y006520D01*
X019515Y006362D02*
X020282Y006362D01*
X020282Y006203D02*
X017482Y006203D01*
X017042Y006203D02*
X016582Y006203D01*
X016582Y006045D02*
X017042Y006045D01*
X017042Y005886D02*
X016582Y005886D01*
X016582Y005728D02*
X017042Y005728D01*
X017042Y005569D02*
X016582Y005569D01*
X016582Y005411D02*
X017042Y005411D01*
X017042Y005252D02*
X016582Y005252D01*
X016582Y005094D02*
X017042Y005094D01*
X017042Y004935D02*
X016582Y004935D01*
X016582Y004777D02*
X017042Y004777D01*
X016884Y004618D02*
X016582Y004618D01*
X016623Y004460D02*
X016765Y004460D01*
X017482Y004618D02*
X019884Y004618D01*
X019765Y004460D02*
X017601Y004460D01*
X017482Y004777D02*
X020462Y004777D01*
X020462Y004935D02*
X017482Y004935D01*
X017482Y005094D02*
X020462Y005094D01*
X020462Y005252D02*
X019405Y005252D01*
X019405Y005251D02*
X019674Y005521D01*
X019674Y005902D01*
X019405Y006171D01*
X019024Y006171D01*
X018754Y005902D01*
X018754Y005521D01*
X019024Y005251D01*
X019405Y005251D01*
X019564Y005411D02*
X020462Y005411D01*
X020381Y005569D02*
X019674Y005569D01*
X019674Y005728D02*
X020282Y005728D01*
X020282Y005886D02*
X019674Y005886D01*
X019532Y006045D02*
X020282Y006045D01*
X020722Y006362D02*
X020734Y006362D01*
X020722Y006520D02*
X020779Y006520D01*
X021256Y006520D02*
X022251Y006520D01*
X022251Y006362D02*
X021301Y006362D01*
X021459Y006203D02*
X022251Y006203D01*
X022251Y006045D02*
X021508Y006045D01*
X021508Y005886D02*
X022251Y005886D01*
X022251Y005728D02*
X021486Y005728D01*
X021328Y005569D02*
X022251Y005569D01*
X022251Y005411D02*
X020902Y005411D01*
X020902Y005252D02*
X022251Y005252D01*
X022251Y005094D02*
X020902Y005094D01*
X020902Y004935D02*
X022251Y004935D01*
X022251Y004777D02*
X020902Y004777D01*
X020902Y004618D02*
X022251Y004618D01*
X022251Y004460D02*
X020902Y004460D01*
X020902Y004301D02*
X022251Y004301D01*
X022251Y004143D02*
X020902Y004143D01*
X020902Y003984D02*
X022251Y003984D01*
X022251Y003826D02*
X020902Y003826D01*
X020902Y003667D02*
X021134Y003667D01*
X021189Y003723D02*
X020920Y003453D01*
X020920Y003072D01*
X021189Y002803D01*
X021570Y002803D01*
X021840Y003072D01*
X021840Y003453D01*
X021570Y003723D01*
X021189Y003723D01*
X020975Y003509D02*
X020902Y003509D01*
X020902Y003350D02*
X020920Y003350D01*
X020920Y003192D02*
X020902Y003192D01*
X020876Y003033D02*
X020959Y003033D01*
X021117Y002875D02*
X020717Y002875D01*
X020559Y002716D02*
X021183Y002716D01*
X021189Y002723D02*
X020920Y002453D01*
X020920Y002072D01*
X021189Y001803D01*
X021570Y001803D01*
X021840Y002072D01*
X021840Y002453D01*
X021570Y002723D01*
X021189Y002723D01*
X021024Y002558D02*
X020543Y002558D01*
X020626Y002399D02*
X020920Y002399D01*
X020920Y002241D02*
X020643Y002241D01*
X020604Y002082D02*
X020920Y002082D01*
X021068Y001924D02*
X020490Y001924D01*
X020444Y001657D02*
X020274Y001727D01*
X020091Y001727D01*
X019922Y001657D01*
X019793Y001527D01*
X019723Y001358D01*
X019723Y001175D01*
X019793Y001006D01*
X019922Y000877D01*
X020091Y000807D01*
X020274Y000807D01*
X020444Y000877D01*
X020573Y001006D01*
X020643Y001175D01*
X020643Y001358D01*
X020573Y001527D01*
X020444Y001657D01*
X020494Y001607D02*
X022251Y001607D01*
X022251Y001765D02*
X017338Y001765D01*
X017490Y001924D02*
X019876Y001924D01*
X019762Y002082D02*
X017604Y002082D01*
X017643Y002241D02*
X019723Y002241D01*
X019740Y002399D02*
X017626Y002399D01*
X017543Y002558D02*
X019823Y002558D01*
X020012Y002716D02*
X017300Y002716D01*
X017438Y002875D02*
X019928Y002875D01*
X019782Y003033D02*
X017584Y003033D01*
X017643Y003192D02*
X019723Y003192D01*
X019723Y003350D02*
X017643Y003350D01*
X017581Y003509D02*
X019785Y003509D01*
X019948Y003667D02*
X017550Y003667D01*
X017708Y003826D02*
X020046Y003826D01*
X020320Y003826D02*
X020462Y003826D01*
X020462Y003667D02*
X020418Y003667D01*
X019815Y003984D02*
X017867Y003984D01*
X016142Y004935D02*
X016027Y004935D01*
X015606Y004935D02*
X015027Y004935D01*
X015186Y004777D02*
X015448Y004777D01*
X015357Y004618D02*
X015277Y004618D01*
X015277Y004460D02*
X015357Y004460D01*
X015360Y004301D02*
X015273Y004301D01*
X015115Y004143D02*
X015519Y004143D01*
X015786Y003509D02*
X015099Y003509D01*
X015258Y003350D02*
X015628Y003350D01*
X015554Y003192D02*
X015332Y003192D01*
X015332Y003033D02*
X015554Y003033D01*
X015574Y002875D02*
X015311Y002875D01*
X015153Y002716D02*
X015733Y002716D01*
X015677Y002399D02*
X015209Y002399D01*
X015332Y002276D02*
X015062Y002546D01*
X014681Y002546D01*
X014412Y002276D01*
X014412Y001895D01*
X014681Y001626D01*
X015062Y001626D01*
X015332Y001895D01*
X015332Y002276D01*
X015332Y002241D02*
X015554Y002241D01*
X015554Y002082D02*
X015332Y002082D01*
X015332Y001924D02*
X015554Y001924D01*
X015684Y001765D02*
X015202Y001765D01*
X015788Y001448D02*
X014092Y001448D01*
X014092Y001290D02*
X015630Y001290D01*
X015471Y001131D02*
X014036Y001131D01*
X014053Y001607D02*
X015947Y001607D01*
X016252Y001290D02*
X016723Y001290D01*
X016741Y001131D02*
X016094Y001131D01*
X015935Y000973D02*
X016827Y000973D01*
X017074Y000814D02*
X015777Y000814D01*
X016411Y001448D02*
X016760Y001448D01*
X016872Y001607D02*
X016569Y001607D01*
X017494Y001607D02*
X019872Y001607D01*
X019760Y001448D02*
X017606Y001448D01*
X017643Y001290D02*
X019723Y001290D01*
X019741Y001131D02*
X017625Y001131D01*
X017539Y000973D02*
X019827Y000973D01*
X020074Y000814D02*
X017292Y000814D01*
X014542Y001765D02*
X013894Y001765D01*
X013829Y001924D02*
X014412Y001924D01*
X014412Y002082D02*
X013987Y002082D01*
X014092Y002241D02*
X014412Y002241D01*
X014535Y002399D02*
X014092Y002399D01*
X013435Y001924D02*
X012741Y001924D01*
X012611Y001765D02*
X013369Y001765D01*
X013276Y002082D02*
X012741Y002082D01*
X012741Y002241D02*
X013172Y002241D01*
X013172Y002399D02*
X012618Y002399D01*
X012562Y002716D02*
X013320Y002716D01*
X013172Y002558D02*
X011119Y002558D01*
X013129Y004618D02*
X013617Y004618D01*
X013445Y004777D02*
X013287Y004777D01*
X013354Y004935D02*
X013380Y004935D01*
X013374Y005094D02*
X013354Y005094D01*
X013351Y005252D02*
X013419Y005252D01*
X013535Y005411D02*
X013193Y005411D01*
X012535Y005411D02*
X011427Y005411D01*
X011478Y005252D02*
X012377Y005252D01*
X011478Y005104D02*
X011408Y004935D01*
X010023Y006045D02*
X007548Y006045D01*
X006992Y006203D02*
X006240Y006203D01*
X006361Y006362D02*
X006930Y006362D01*
X006771Y006520D02*
X006371Y006520D01*
X006371Y006679D02*
X006731Y006679D01*
X006731Y006837D02*
X006287Y006837D01*
X006128Y006996D02*
X006785Y006996D01*
X007015Y007947D02*
X005863Y007947D01*
X005863Y008105D02*
X007223Y008105D01*
X007202Y008264D02*
X005863Y008264D01*
X004943Y009215D02*
X004198Y009215D01*
X004049Y009373D02*
X004989Y009373D01*
X005148Y009532D02*
X003434Y009532D01*
X003593Y009690D02*
X004826Y009690D01*
X004667Y009849D02*
X003751Y009849D01*
X003910Y010007D02*
X003911Y010007D01*
X004329Y010007D02*
X004656Y010007D01*
X004656Y010166D02*
X004487Y010166D01*
X004610Y010324D02*
X004739Y010324D01*
X004610Y010483D02*
X004898Y010483D01*
X004610Y010641D02*
X006790Y010641D01*
X006790Y010483D02*
X006334Y010483D01*
X006493Y010324D02*
X006865Y010324D01*
X007023Y010166D02*
X006576Y010166D01*
X005898Y010483D02*
X005334Y010483D01*
X005493Y010324D02*
X005739Y010324D01*
X005656Y010166D02*
X005576Y010166D01*
X005576Y010007D02*
X005656Y010007D01*
X005667Y009849D02*
X005565Y009849D01*
X005406Y009690D02*
X005826Y009690D01*
X006809Y010800D02*
X004504Y010800D01*
X004346Y010958D02*
X006968Y010958D01*
X006914Y011275D02*
X004188Y011275D01*
X004346Y011434D02*
X006790Y011434D01*
X006790Y011592D02*
X004505Y011592D01*
X004663Y011751D02*
X006790Y011751D01*
X006919Y011909D02*
X004702Y011909D01*
X004885Y012068D02*
X005244Y012068D01*
X005287Y012024D02*
X005467Y011950D01*
X005662Y011950D01*
X005842Y012024D01*
X005980Y012162D01*
X006055Y012342D01*
X006055Y012537D01*
X005980Y012717D01*
X005842Y012855D01*
X005662Y012930D01*
X005467Y012930D01*
X005287Y012855D01*
X005149Y012717D01*
X005075Y012537D01*
X005075Y012342D01*
X005149Y012162D01*
X005287Y012024D01*
X005123Y012226D02*
X005044Y012226D01*
X005055Y012385D02*
X005075Y012385D01*
X005077Y012543D02*
X005055Y012543D01*
X004996Y012702D02*
X005143Y012702D01*
X005299Y012860D02*
X004838Y012860D01*
X004292Y012860D02*
X002022Y012860D01*
X002088Y012702D02*
X004134Y012702D01*
X004075Y012543D02*
X002095Y012543D01*
X002062Y012385D02*
X004075Y012385D01*
X004086Y012226D02*
X001975Y012226D01*
X001790Y012068D02*
X004244Y012068D01*
X004199Y011909D02*
X001988Y011909D01*
X002067Y011751D02*
X004041Y011751D01*
X003882Y011592D02*
X002095Y011592D01*
X002082Y011434D02*
X003724Y011434D01*
X003565Y011275D02*
X002017Y011275D01*
X001866Y011117D02*
X003407Y011117D01*
X003712Y010800D02*
X003735Y010800D01*
X003630Y010641D02*
X003588Y010641D01*
X003610Y010483D02*
X003630Y010483D01*
X003604Y010324D02*
X003581Y010324D01*
X002735Y010800D02*
X002047Y010800D01*
X002095Y010641D02*
X002652Y010641D01*
X002630Y010483D02*
X002095Y010483D01*
X001939Y010958D02*
X002967Y010958D01*
X003871Y010958D02*
X003894Y010958D01*
X004029Y011117D02*
X007907Y011117D01*
X008065Y011275D02*
X007586Y011275D01*
X007532Y010958D02*
X007748Y010958D01*
X008991Y011275D02*
X010535Y011275D01*
X010377Y011434D02*
X009127Y011434D01*
X009127Y011592D02*
X010218Y011592D01*
X010060Y011751D02*
X009127Y011751D01*
X008386Y012226D02*
X006007Y012226D01*
X006055Y012385D02*
X010728Y012385D01*
X011008Y012385D02*
X016806Y012385D01*
X016689Y012226D02*
X016964Y012226D01*
X016848Y012068D02*
X017123Y012068D01*
X016943Y011909D02*
X016863Y011909D01*
X016798Y011592D02*
X016785Y011592D01*
X016798Y011434D02*
X016626Y011434D01*
X016906Y011275D02*
X016158Y011275D01*
X016287Y011117D02*
X017064Y011117D01*
X017108Y010958D02*
X016445Y010958D01*
X016505Y010800D02*
X016950Y010800D01*
X016791Y010641D02*
X016505Y010641D01*
X016471Y010483D02*
X016633Y010483D01*
X016474Y010324D02*
X016312Y010324D01*
X016322Y010166D02*
X016238Y010166D01*
X015853Y010166D02*
X015048Y010166D01*
X015207Y010324D02*
X015778Y010324D01*
X015620Y010483D02*
X015365Y010483D01*
X015524Y010641D02*
X015585Y010641D01*
X015218Y010958D02*
X014851Y010958D01*
X015009Y011117D02*
X015377Y011117D01*
X015535Y011275D02*
X015168Y011275D01*
X014862Y011592D02*
X014803Y011592D01*
X014803Y011751D02*
X014943Y011751D01*
X014943Y011909D02*
X014671Y011909D01*
X014959Y012068D02*
X011334Y012068D01*
X011358Y011909D02*
X012955Y011909D01*
X012897Y011851D02*
X013035Y011989D01*
X013215Y012064D01*
X013410Y012064D01*
X013590Y011989D01*
X013728Y011851D01*
X013803Y011671D01*
X013803Y011476D01*
X013728Y011296D01*
X013590Y011158D01*
X013410Y011084D01*
X013215Y011084D01*
X013035Y011158D01*
X012897Y011296D01*
X012823Y011476D01*
X012823Y011671D01*
X012897Y011851D01*
X012856Y011751D02*
X011331Y011751D01*
X011651Y011592D02*
X012823Y011592D01*
X012841Y011434D02*
X011809Y011434D01*
X011968Y011275D02*
X012919Y011275D01*
X013136Y011117D02*
X012468Y011117D01*
X012626Y010958D02*
X014228Y010958D01*
X014077Y011117D02*
X013490Y011117D01*
X013707Y011275D02*
X013919Y011275D01*
X013823Y011434D02*
X013785Y011434D01*
X013803Y011592D02*
X013823Y011592D01*
X013823Y011751D02*
X013770Y011751D01*
X013671Y011909D02*
X013955Y011909D01*
X015118Y012226D02*
X011247Y012226D01*
X010489Y012226D02*
X010207Y012226D01*
X010365Y012068D02*
X010402Y012068D01*
X010759Y013024D02*
X010977Y013024D01*
X011180Y013107D01*
X011334Y013262D01*
X011368Y013344D01*
X011402Y013262D01*
X011556Y013107D01*
X011759Y013024D01*
X011977Y013024D01*
X012180Y013107D01*
X012334Y013262D01*
X012368Y013344D01*
X012402Y013262D01*
X012556Y013107D01*
X012759Y013024D01*
X012977Y013024D01*
X013180Y013107D01*
X013334Y013262D01*
X013418Y013464D01*
X013418Y013683D01*
X013334Y013885D01*
X013180Y014040D01*
X012977Y014124D01*
X012759Y014124D01*
X012556Y014040D01*
X012402Y013885D01*
X012368Y013804D01*
X012334Y013885D01*
X012180Y014040D01*
X011977Y014124D01*
X011759Y014124D01*
X011556Y014040D01*
X011402Y013885D01*
X011368Y013804D01*
X011334Y013885D01*
X011180Y014040D01*
X010977Y014124D01*
X010759Y014124D01*
X010556Y014040D01*
X010402Y013885D01*
X010318Y013683D01*
X010318Y013464D01*
X010402Y013262D01*
X010556Y013107D01*
X010759Y013024D01*
X010487Y013177D02*
X009670Y013177D01*
X009601Y013107D02*
X009756Y013262D01*
X009839Y013464D01*
X009839Y013683D01*
X009756Y013885D01*
X009601Y014040D01*
X009399Y014124D01*
X009180Y014124D01*
X008978Y014040D01*
X008823Y013885D01*
X008789Y013804D01*
X008756Y013885D01*
X008601Y014040D01*
X008399Y014124D01*
X008180Y014124D01*
X007978Y014040D01*
X007823Y013885D01*
X007789Y013804D01*
X007756Y013885D01*
X007601Y014040D01*
X007399Y014124D01*
X007180Y014124D01*
X006978Y014040D01*
X006823Y013885D01*
X006739Y013683D01*
X006739Y013464D01*
X006823Y013262D01*
X006978Y013107D01*
X007180Y013024D01*
X007399Y013024D01*
X007601Y013107D01*
X007756Y013262D01*
X007789Y013344D01*
X007823Y013262D01*
X007978Y013107D01*
X008180Y013024D01*
X008399Y013024D01*
X008601Y013107D01*
X008756Y013262D01*
X008789Y013344D01*
X008823Y013262D01*
X008978Y013107D01*
X009180Y013024D01*
X009399Y013024D01*
X009601Y013107D01*
X009786Y013336D02*
X010371Y013336D01*
X010318Y013494D02*
X009839Y013494D01*
X009839Y013653D02*
X010318Y013653D01*
X010371Y013811D02*
X009786Y013811D01*
X009671Y013970D02*
X010486Y013970D01*
X011250Y013970D02*
X011486Y013970D01*
X011371Y013811D02*
X011365Y013811D01*
X011365Y013336D02*
X011371Y013336D01*
X011487Y013177D02*
X011249Y013177D01*
X012249Y013177D02*
X012487Y013177D01*
X012371Y013336D02*
X012365Y013336D01*
X012365Y013811D02*
X012371Y013811D01*
X012486Y013970D02*
X012250Y013970D01*
X013250Y013970D02*
X013986Y013970D01*
X013871Y013811D02*
X013365Y013811D01*
X013418Y013653D02*
X013818Y013653D01*
X013818Y013494D02*
X013418Y013494D01*
X013365Y013336D02*
X013871Y013336D01*
X013987Y013177D02*
X013249Y013177D01*
X014749Y013177D02*
X014987Y013177D01*
X014871Y013336D02*
X014865Y013336D01*
X014865Y013811D02*
X014871Y013811D01*
X014986Y013970D02*
X014750Y013970D01*
X015750Y013970D02*
X015986Y013970D01*
X015871Y013811D02*
X015865Y013811D01*
X015865Y013336D02*
X015871Y013336D01*
X015987Y013177D02*
X015749Y013177D01*
X016232Y013019D02*
X001878Y013019D01*
X001443Y013494D02*
X006739Y013494D01*
X006739Y013653D02*
X001604Y013653D01*
X001676Y013811D02*
X006792Y013811D01*
X006907Y013970D02*
X001705Y013970D01*
X001701Y014128D02*
X021193Y014128D01*
X021259Y014287D02*
X001635Y014287D01*
X001505Y014445D02*
X021389Y014445D01*
X022123Y014496D02*
X022251Y014496D01*
X022251Y014368D01*
X022123Y014496D01*
X022174Y014445D02*
X022251Y014445D01*
X021188Y013970D02*
X020250Y013970D01*
X020180Y014040D02*
X019977Y014124D01*
X019759Y014124D01*
X019556Y014040D01*
X019402Y013885D01*
X019368Y013804D01*
X019334Y013885D01*
X019180Y014040D01*
X018977Y014124D01*
X018759Y014124D01*
X018556Y014040D01*
X018402Y013885D01*
X018368Y013804D01*
X018334Y013885D01*
X018180Y014040D01*
X017977Y014124D01*
X017759Y014124D01*
X017556Y014040D01*
X017402Y013885D01*
X017318Y013683D01*
X017318Y013464D01*
X017402Y013262D01*
X017556Y013107D01*
X017759Y013024D01*
X017977Y013024D01*
X018180Y013107D01*
X018334Y013262D01*
X018368Y013344D01*
X018402Y013262D01*
X018556Y013107D01*
X018759Y013024D01*
X018977Y013024D01*
X019180Y013107D01*
X019334Y013262D01*
X019368Y013344D01*
X019402Y013262D01*
X019556Y013107D01*
X019759Y013024D01*
X019977Y013024D01*
X020180Y013107D01*
X020334Y013262D01*
X020418Y013464D01*
X020418Y013683D01*
X020334Y013885D01*
X020180Y014040D01*
X020365Y013811D02*
X021217Y013811D01*
X021289Y013653D02*
X020418Y013653D01*
X020418Y013494D02*
X021450Y013494D01*
X022112Y013494D02*
X022251Y013494D01*
X022251Y013336D02*
X020365Y013336D01*
X020249Y013177D02*
X022251Y013177D01*
X022251Y013019D02*
X016794Y013019D01*
X016749Y013177D02*
X017487Y013177D01*
X017371Y013336D02*
X016865Y013336D01*
X016918Y013494D02*
X017318Y013494D01*
X017318Y013653D02*
X016918Y013653D01*
X016865Y013811D02*
X017371Y013811D01*
X017486Y013970D02*
X016750Y013970D01*
X018250Y013970D02*
X018486Y013970D01*
X018371Y013811D02*
X018365Y013811D01*
X018365Y013336D02*
X018371Y013336D01*
X018487Y013177D02*
X018249Y013177D01*
X017270Y012543D02*
X022251Y012543D01*
X022251Y012385D02*
X017428Y012385D01*
X017587Y012226D02*
X022251Y012226D01*
X022251Y012068D02*
X017745Y012068D01*
X017904Y011909D02*
X017943Y011909D01*
X018573Y011909D02*
X019139Y011909D01*
X019264Y012034D02*
X018995Y011764D01*
X018995Y011383D01*
X019264Y011114D01*
X019645Y011114D01*
X019915Y011383D01*
X019915Y011764D01*
X019645Y012034D01*
X019264Y012034D01*
X018995Y011751D02*
X018718Y011751D01*
X018718Y011592D02*
X018995Y011592D01*
X018995Y011434D02*
X018718Y011434D01*
X018610Y011275D02*
X019103Y011275D01*
X019261Y011117D02*
X018451Y011117D01*
X018064Y011117D02*
X017889Y011117D01*
X017731Y010958D02*
X019538Y010958D01*
X019648Y011117D02*
X019697Y011117D01*
X019806Y011275D02*
X019855Y011275D01*
X019915Y011434D02*
X019995Y011434D01*
X019995Y011592D02*
X019915Y011592D01*
X019915Y011751D02*
X019995Y011751D01*
X020139Y011909D02*
X019770Y011909D01*
X020770Y011909D02*
X022251Y011909D01*
X022251Y011751D02*
X020915Y011751D01*
X020915Y011592D02*
X022251Y011592D01*
X022251Y011434D02*
X020915Y011434D01*
X020806Y011275D02*
X022251Y011275D01*
X022251Y011117D02*
X020648Y011117D01*
X020161Y010958D02*
X022251Y010958D01*
X022251Y010800D02*
X020002Y010800D01*
X019844Y010641D02*
X022251Y010641D01*
X022251Y010483D02*
X020551Y010483D01*
X020709Y010324D02*
X022251Y010324D01*
X022251Y010166D02*
X020769Y010166D01*
X020769Y010007D02*
X022251Y010007D01*
X022251Y009849D02*
X020774Y009849D01*
X020933Y009690D02*
X022251Y009690D01*
X022251Y009532D02*
X020992Y009532D01*
X020992Y009373D02*
X022251Y009373D01*
X022251Y009215D02*
X020992Y009215D01*
X020992Y009056D02*
X022251Y009056D01*
X022251Y008898D02*
X020992Y008898D01*
X020912Y008739D02*
X022251Y008739D01*
X022251Y008581D02*
X020753Y008581D01*
X020722Y008422D02*
X022251Y008422D01*
X022251Y008264D02*
X020722Y008264D01*
X020722Y008105D02*
X022251Y008105D01*
X022251Y007947D02*
X020722Y007947D01*
X020722Y007788D02*
X022251Y007788D01*
X022251Y007630D02*
X020722Y007630D01*
X020722Y007471D02*
X022251Y007471D01*
X022251Y007313D02*
X021350Y007313D01*
X021464Y007154D02*
X022251Y007154D01*
X022251Y006996D02*
X021508Y006996D01*
X021500Y006837D02*
X022251Y006837D01*
X022251Y006679D02*
X021435Y006679D01*
X019006Y007154D02*
X017915Y007154D01*
X018073Y006996D02*
X018848Y006996D01*
X018755Y006520D02*
X018166Y006520D01*
X018007Y006362D02*
X018914Y006362D01*
X018897Y006045D02*
X018024Y006045D01*
X018167Y005886D02*
X018754Y005886D01*
X018754Y005728D02*
X018167Y005728D01*
X018167Y005569D02*
X018754Y005569D01*
X018865Y005411D02*
X018056Y005411D01*
X017898Y005252D02*
X019023Y005252D01*
X017516Y005252D02*
X017482Y005252D01*
X016142Y005728D02*
X016045Y005728D01*
X016582Y006362D02*
X017042Y006362D01*
X017042Y006520D02*
X016582Y006520D01*
X017482Y007154D02*
X017499Y007154D01*
X015969Y008739D02*
X014995Y008739D01*
X014897Y008641D02*
X015167Y008911D01*
X015167Y009292D01*
X014897Y009561D01*
X014516Y009561D01*
X014247Y009292D01*
X014247Y008911D01*
X014516Y008641D01*
X014897Y008641D01*
X015153Y008898D02*
X016128Y008898D01*
X016286Y009056D02*
X015167Y009056D01*
X015167Y009215D02*
X016322Y009215D01*
X015729Y009373D02*
X015085Y009373D01*
X014927Y009532D02*
X015585Y009532D01*
X015585Y009690D02*
X014573Y009690D01*
X014486Y009532D02*
X014414Y009532D01*
X014328Y009373D02*
X014256Y009373D01*
X014247Y009215D02*
X014167Y009215D01*
X014167Y009056D02*
X014247Y009056D01*
X014260Y008898D02*
X014153Y008898D01*
X014234Y008739D02*
X014418Y008739D01*
X013328Y009373D02*
X012605Y009373D01*
X012718Y009532D02*
X013486Y009532D01*
X013950Y009690D02*
X012718Y009690D01*
X012718Y009849D02*
X014109Y009849D01*
X014267Y010007D02*
X012577Y010007D01*
X012556Y010324D02*
X014584Y010324D01*
X014426Y010166D02*
X011195Y010166D01*
X011282Y010007D02*
X011938Y010007D01*
X011798Y009849D02*
X011301Y009849D01*
X011265Y009690D02*
X011798Y009690D01*
X011959Y010324D02*
X010944Y010324D01*
X011131Y010483D02*
X011801Y010483D01*
X011798Y010641D02*
X011290Y010641D01*
X011358Y010800D02*
X011798Y010800D01*
X011662Y010958D02*
X011358Y010958D01*
X011357Y011117D02*
X011504Y011117D01*
X012715Y010483D02*
X014743Y010483D01*
X014901Y010641D02*
X014534Y010641D01*
X014692Y010800D02*
X015060Y010800D01*
X015626Y011434D02*
X015694Y011434D01*
X015785Y011592D02*
X015852Y011592D01*
X015863Y011751D02*
X015943Y011751D01*
X015943Y011909D02*
X015863Y011909D01*
X015848Y012068D02*
X015959Y012068D01*
X016118Y012226D02*
X015689Y012226D01*
X016489Y012702D02*
X005987Y012702D01*
X006052Y012543D02*
X016647Y012543D01*
X016953Y012860D02*
X022251Y012860D01*
X022251Y012702D02*
X017111Y012702D01*
X016330Y012860D02*
X005831Y012860D01*
X005885Y012068D02*
X008228Y012068D01*
X008069Y011909D02*
X007581Y011909D01*
X007670Y013177D02*
X007908Y013177D01*
X007793Y013336D02*
X007786Y013336D01*
X007786Y013811D02*
X007792Y013811D01*
X007907Y013970D02*
X007671Y013970D01*
X006793Y013336D02*
X000682Y013336D01*
X000682Y013494D02*
X000781Y013494D01*
X000682Y013177D02*
X006908Y013177D01*
X008670Y013177D02*
X008908Y013177D01*
X008793Y013336D02*
X008786Y013336D01*
X008786Y013811D02*
X008792Y013811D01*
X008907Y013970D02*
X008671Y013970D01*
X014731Y009849D02*
X015585Y009849D01*
X015694Y010007D02*
X014890Y010007D01*
X016780Y010007D02*
X017178Y010007D01*
X017019Y010166D02*
X016938Y010166D01*
X017686Y010800D02*
X019380Y010800D01*
X019221Y010641D02*
X017845Y010641D01*
X017938Y010483D02*
X018622Y010483D01*
X018464Y010324D02*
X017938Y010324D01*
X018027Y010166D02*
X018404Y010166D01*
X018404Y010007D02*
X018186Y010007D01*
X019324Y010007D02*
X019849Y010007D01*
X019849Y010166D02*
X019368Y010166D01*
X019527Y010324D02*
X019909Y010324D01*
X020067Y010483D02*
X019685Y010483D01*
X019884Y009849D02*
X019334Y009849D01*
X019493Y009690D02*
X020042Y009690D01*
X020116Y009532D02*
X019651Y009532D01*
X019810Y009373D02*
X019958Y009373D01*
X019504Y009056D02*
X019324Y009056D01*
X019324Y008898D02*
X019663Y008898D01*
X019993Y008739D02*
X019180Y008739D01*
X019324Y009215D02*
X019346Y009215D01*
X019249Y013177D02*
X019487Y013177D01*
X019371Y013336D02*
X019365Y013336D01*
X019365Y013811D02*
X019371Y013811D01*
X019486Y013970D02*
X019250Y013970D01*
X011361Y008739D02*
X011285Y008739D01*
X011203Y008581D02*
X011520Y008581D01*
X011678Y008422D02*
X010964Y008422D01*
X011090Y008264D02*
X011624Y008264D01*
X011771Y007788D02*
X011774Y007788D01*
X011855Y007630D02*
X011240Y007630D01*
X011082Y007471D02*
X011821Y007471D01*
X010029Y006362D02*
X009924Y006362D01*
X009998Y006203D02*
X009766Y006203D01*
X007964Y005411D02*
X007501Y005411D01*
X006731Y005728D02*
X006715Y005728D01*
X006731Y005886D02*
X006557Y005886D01*
X006398Y006045D02*
X006834Y006045D01*
X005010Y005252D02*
X004702Y005252D01*
X004702Y005094D02*
X004853Y005094D01*
X004853Y004935D02*
X004702Y004935D01*
X004702Y004777D02*
X004853Y004777D01*
X004855Y004618D02*
X004949Y004618D01*
X005013Y004460D02*
X005107Y004460D01*
X007756Y003984D02*
X007836Y003984D01*
X005139Y002082D02*
X004482Y002082D01*
X004482Y001924D02*
X004983Y001924D01*
X004983Y001765D02*
X004466Y001765D01*
X004307Y001607D02*
X004983Y001607D01*
X003105Y008422D02*
X002992Y008422D01*
X002992Y008581D02*
X002998Y008581D01*
X001176Y010166D02*
X000682Y010166D01*
X000682Y010324D02*
X001053Y010324D01*
X000995Y010483D02*
X000682Y010483D01*
X000682Y010641D02*
X000995Y010641D01*
X001043Y010800D02*
X000682Y010800D01*
X000682Y010958D02*
X001152Y010958D01*
X001225Y011117D02*
X000682Y011117D01*
X000682Y011275D02*
X001074Y011275D01*
X001008Y011434D02*
X000682Y011434D01*
X000682Y011592D02*
X000995Y011592D01*
X001023Y011751D02*
X000682Y011751D01*
X000682Y011909D02*
X001103Y011909D01*
X001300Y012068D02*
X000682Y012068D01*
X000682Y012226D02*
X001115Y012226D01*
X001028Y012385D02*
X000682Y012385D01*
X000682Y012543D02*
X000995Y012543D01*
X001003Y012702D02*
X000682Y012702D01*
X000682Y012860D02*
X001068Y012860D01*
X001212Y013019D02*
X000682Y013019D01*
X000682Y014407D02*
X000682Y014496D01*
X000771Y014496D01*
X000682Y014407D01*
X000682Y014445D02*
X000719Y014445D01*
X009427Y009532D02*
X009968Y009532D01*
X021626Y003667D02*
X022251Y003667D01*
X022251Y003509D02*
X021784Y003509D01*
X021840Y003350D02*
X022251Y003350D01*
X022251Y003192D02*
X021840Y003192D01*
X021801Y003033D02*
X022251Y003033D01*
X022251Y002875D02*
X021642Y002875D01*
X021577Y002716D02*
X022251Y002716D01*
X022251Y002558D02*
X021735Y002558D01*
X021840Y002399D02*
X022251Y002399D01*
X022251Y002241D02*
X021840Y002241D01*
X021840Y002082D02*
X022251Y002082D01*
X022251Y001924D02*
X021691Y001924D01*
X022251Y001448D02*
X020606Y001448D01*
X020643Y001290D02*
X021422Y001290D01*
X021272Y001131D02*
X020625Y001131D01*
X020539Y000973D02*
X021207Y000973D01*
X021188Y000814D02*
X020292Y000814D01*
X022141Y001290D02*
X022251Y001290D01*
X022251Y000441D02*
X022251Y000340D01*
X022150Y000340D01*
X022251Y000441D01*
M02*
